<?xml version="1.0" encoding="utf-8"?>
<!-- Generator: Adobe Illustrator 25.4.2, SVG Export Plug-In . SVG Version: 6.00 Build 0)  -->
<svg version="1.1" id="Layer_1" xmlns="http://www.w3.org/2000/svg" xmlns:xlink="http://www.w3.org/1999/xlink" x="0px" y="0px"
	 viewBox="0 0 680.315 226.772" enable-background="new 0 0 680.315 226.772" xml:space="preserve">
<g>
	<g>
		<path fill="#0080BB" d="M285.18,58.648c1.577,0,2.723-1.194,2.723-2.842c0-1.273-1.094-2.638-2.723-2.638
			c-0.784,0-1.502,0.295-2.016,0.828c-0.503,0.518-0.766,1.211-0.741,1.951C282.469,57.564,283.58,58.648,285.18,58.648z"/>
		<path fill="#0080BB" d="M280.931,87.572l-1.099,0.131l-0.169,0.069l-0.079,0.081c-0.372,0.374-0.318,0.94-0.291,1.105
			c0.062,0.379,0.25,0.67,0.574,0.834l0.131,0.033l0.081-0.004c2.006-0.077,3.418-0.122,5.122-0.122
			c1.637,0,3.035,0.045,5.037,0.122l0.06,0.002l0.137-0.021l0.077-0.04c0.453-0.227,0.522-0.815,0.533-0.992
			c0.025-0.443-0.118-0.803-0.393-0.988l-0.062-0.04l-1.202-0.169c-1.887-0.227-2.001-0.239-2.001-4.633V68.413
			c0-4.333,0.075-4.506,1.979-4.668l1.08-0.087l0.131-0.04l0.071-0.046c0.281-0.185,0.424-0.545,0.395-0.992
			c-0.033-0.47-0.233-0.841-0.593-1.019l-0.133-0.033l-0.081,0.004c-1.897,0.075-3.329,0.121-5.037,0.121
			c-1.764,0-3.16-0.044-5.18-0.123l-0.135,0.021l-0.077,0.039c-0.449,0.225-0.52,0.809-0.533,0.984
			c-0.027,0.449,0.114,0.811,0.429,1.023l0.075,0.056l1.169,0.092c1.906,0.162,1.98,0.335,1.98,4.668v14.527
			C282.928,87.333,282.816,87.347,280.931,87.572z"/>
		<path fill="#0080BB" d="M308.849,73.941l-3.266-2.045c-1.198-0.741-3.208-2.318-3.208-4.542c0-1.485,0.56-3.974,4.304-3.974
			c3.416,0,4.448,2.124,5.037,4.271l0.064,0.116l0.019,0.021c0.179,0.218,0.464,0.337,0.805,0.337c0.383,0,0.872-0.154,1.146-0.56
			l0.052-0.152v-0.098c0-1.837-0.404-4.202-0.768-5.174l-0.135-0.364h-0.385c-0.271,0-0.795-0.075-1.284-0.225
			c-0.986-0.264-2.54-0.549-3.94-0.549c-5.313,0-8.881,3.046-8.881,7.575c0,3.645,2.532,6.083,4.658,7.485l3.88,2.534
			c2.717,1.748,3.092,3.551,3.092,5.242c0,2.06-1.406,4.138-4.546,4.138c-3.98,0-5.723-3.089-6.503-5.729l-0.052-0.104
			c-0.169-0.254-0.464-0.391-0.826-0.391c-0.329,0-0.805,0.131-1.115,0.564l-0.064,0.167l0.004,0.116
			c0.083,1.912,0.612,4.931,1.198,6.008l0.1,0.114l0.081,0.048c0.822,0.476,3.112,1.583,6.647,1.583
			c5.532,0,9.249-3.254,9.249-8.103C314.212,78.888,312.458,76.171,308.849,73.941z"/>
		<path fill="#0080BB" d="M346.559,61.051l-0.054-0.108c-0.212-0.427-0.747-0.474-0.967-0.474c-0.123,0-0.302,0.013-0.551,0.114
			l-0.139,0.11l-0.056,0.094c-0.445,0.768-0.499,0.867-2.702,0.867h-16.855c-1.864,0-2.463-0.112-2.605-0.876l-0.071-0.15
			l-0.067-0.073c-0.162-0.162-0.404-0.243-0.736-0.243c-0.148,0-0.512,0.017-0.828,0.225l-0.135,0.173l-0.025,0.141
			c-0.279,1.604-0.876,4.163-1.558,6.081l-0.002,0.218l0.062,0.125c0.2,0.406,0.707,0.689,1.227,0.689
			c0.254,0,0.485-0.073,0.711-0.239l0.098-0.116l0.037-0.081c0.404-0.918,0.784-1.785,1.7-2.625
			c0.843-0.772,2.923-0.872,4.641-0.872h2.245c0.283,0,0.576,0,0.626,0.025c0.042,0.071,0.042,0.402,0.042,0.726v18.239
			c0,4.369-0.229,4.39-2.018,4.546l-1.546,0.139l-0.141,0.046l-0.031,0.021c-0.322,0.2-0.499,0.589-0.476,1.042
			c0.021,0.443,0.216,0.795,0.578,0.976l0.131,0.031l0.077-0.002c2.49-0.075,3.98-0.122,5.655-0.122
			c1.589,0,2.871,0.037,5.328,0.122l0.054,0.002l0.137-0.021l0.075-0.037c0.454-0.227,0.524-0.818,0.533-0.992
			c0.029-0.445-0.114-0.805-0.393-0.992l-0.064-0.042l-1.502-0.171c-1.829-0.156-1.939-0.166-1.939-4.546V64.704
			c0-0.233,0-0.51,0.017-0.653c0.145-0.019,0.418-0.019,0.61-0.019h2.896c2.132,0,3.574,0.297,4.404,0.913
			c0.245,0.177,0.601,0.967,0.803,2.659l0.056,0.152l0.065,0.077c0.198,0.239,0.535,0.372,0.926,0.372
			c0.48,0,0.884-0.214,1.09-0.622l0.033-0.15l-0.008-0.094c-0.115-1.157,0.166-4.398,0.62-6.091L346.559,61.051z"/>
		<path fill="#0080BB" d="M357.037,58.648c1.598,0,2.717-1.167,2.717-2.842c0-1.273-1.092-2.638-2.717-2.638
			c-0.788,0-1.506,0.297-2.022,0.828c-0.501,0.518-0.764,1.209-0.739,1.951C354.323,57.564,355.433,58.648,357.037,58.648z"/>
		<path fill="#0080BB" d="M361.202,63.745l1.08-0.087l0.131-0.04l0.073-0.046c0.398-0.268,0.404-0.786,0.391-0.994
			c-0.012-0.175-0.081-0.761-0.587-1.017l-0.133-0.033l-0.083,0.004c-1.899,0.075-3.333,0.121-5.037,0.121
			c-1.766,0-3.162-0.044-5.18-0.123l-0.135,0.021l-0.077,0.037c-0.302,0.15-0.503,0.522-0.535,0.992
			c-0.029,0.449,0.115,0.807,0.429,1.017l0.073,0.056l1.171,0.092c1.906,0.162,1.981,0.335,1.981,4.668v14.527
			c0,4.394-0.114,4.408-1.997,4.633l-1.102,0.131l-0.169,0.069l-0.081,0.081c-0.374,0.375-0.314,0.942-0.289,1.103
			c0.062,0.381,0.25,0.674,0.572,0.834l0.135,0.035l0.083-0.004c2.003-0.077,3.414-0.122,5.12-0.122
			c1.637,0,3.033,0.045,5.039,0.122l0.058,0.002l0.135-0.021l0.075-0.037c0.454-0.227,0.524-0.818,0.533-0.992
			c0.029-0.445-0.114-0.805-0.391-0.992l-0.064-0.04l-1.2-0.169c-1.885-0.225-1.997-0.239-1.997-4.633V68.413
			C359.226,64.08,359.299,63.907,361.202,63.745z"/>
		<path fill="#0080BB" d="M398.989,63.741l0.645-0.091l0.166-0.069l0.077-0.079c0.25-0.252,0.372-0.639,0.325-1.032
			c-0.04-0.37-0.225-0.68-0.566-0.89l-0.164-0.054l-0.106,0.006c-1.327,0.077-2.384,0.121-4.169,0.121
			c-1.46,0-2.804-0.037-4.837-0.123l-0.112,0.011l-0.066,0.025c-0.316,0.119-0.541,0.414-0.608,0.803
			c-0.062,0.341,0,0.849,0.41,1.204l0.077,0.069l0.863,0.098c1.583,0.198,2.035,0.42,2.13,0.562
			c0.217,0.345,0.728,1.837,0.728,8.151c0,0,0,9.125-0.002,9.318c-1.342-1.409-2.761-3.004-4.508-4.958l-5.459-6.123
			c-4.04-4.525-6.353-7.487-6.87-8.804l-0.16-0.418l-0.445,0.069c-0.47,0.073-1.123,0.116-1.791,0.116c-0.712,0-2.877,0-4.633-0.125
			l-0.146,0.023l-0.081,0.039c-0.291,0.144-0.485,0.426-0.545,0.797c-0.065,0.414,0.056,0.853,0.381,1.175l0.079,0.079l0.878,0.1
			c1.019,0.127,1.8,0.418,2.187,0.801c0.678,0.743,0.751,1.382,0.751,2.565v12.166c0.002,1.958,0.012,6.539-0.481,7.804
			c-0.037,0.079-0.239,0.347-1.352,0.493l-1.181,0.133l-0.171,0.069l-0.081,0.081c-0.231,0.231-0.349,0.593-0.316,0.967
			c0.029,0.381,0.202,0.709,0.531,0.942l0.177,0.067l0.116-0.006c1.396-0.079,2.484-0.123,4.211-0.123
			c1.411,0,2.788,0.037,4.831,0.125l0.173-0.042l0.092-0.064c0.25-0.175,0.414-0.453,0.46-0.776
			c0.058-0.364-0.037-0.738-0.318-1.115l-0.085-0.112l-1.517-0.148c-1.132-0.093-1.565-0.352-1.644-0.495
			c-0.152-0.273-0.661-1.673-0.661-8.172v-8.894c0-0.468,0.008-1.007,0.035-1.483c0.643,0.736,1.515,1.766,2.311,2.707
			c0.672,0.793,1.296,1.533,1.7,1.997l9.466,10.775c3.145,3.576,4.646,5.346,5.189,6.116l0.166,0.231h0.287
			c0.633,0,1.134-0.318,1.317-0.872l0.019-0.123l-0.008-0.073c-0.054-0.47-0.12-2.081-0.12-7.075l-0.002-10.35
			c-0.006-1.901-0.013-6.353,0.541-7.537C397.109,64.315,397.442,63.986,398.989,63.741z"/>
		<path fill="#0080BB" d="M422.237,74.488c0,0,3.027-5.243,3.249-5.63c1.569-2.74,2.704-4.718,4.325-4.995l1.206-0.216l0.135-0.058
			l0.065-0.06c0.268-0.229,0.41-0.597,0.383-0.988c-0.031-0.391-0.229-0.738-0.599-0.965l-0.158-0.05l-0.102,0.006
			c-1.425,0.085-2.549,0.121-3.763,0.121c-1.213,0-2.376-0.037-3.942-0.125l-0.142,0.021l-0.083,0.04
			c-0.297,0.148-0.503,0.441-0.562,0.809c-0.067,0.412,0.06,0.826,0.397,1.161l0.081,0.081l0.918,0.1
			c0.591,0.075,0.986,0.198,1.176,0.266c-0.287,0.784-1.692,3.395-2.326,4.567l-0.216,0.399c-0.913,1.772-1.979,3.697-3.331,6.027
			c-0.986-1.814-1.956-3.79-2.921-5.752c-0.401-0.818-0.799-1.631-1.202-2.428c-0.314-0.637-1.059-2.345-1.186-2.813
			c0.114-0.052,0.426-0.154,1.221-0.266l0.606-0.092l0.16-0.069l0.075-0.075c0.279-0.285,0.399-0.768,0.297-1.203
			c-0.085-0.362-0.324-0.637-0.662-0.751l-0.118-0.023l-0.077,0.006c-0.988,0.079-2.442,0.121-4.321,0.121
			c-1.927,0-3.377-0.039-4.768-0.125l-0.158,0.029l-0.085,0.046c-0.262,0.15-0.441,0.424-0.503,0.772
			c-0.071,0.406,0.031,0.817,0.325,1.155l0.077,0.088l1.344,0.243c1.034,0.171,1.506,0.25,2.821,2.806l4.814,9.387
			c1.128,2.176,1.246,2.625,1.246,4.804v2.08c0,4.427-0.112,4.44-1.945,4.631l-1.348,0.131l-0.177,0.069l-0.083,0.083
			c-0.374,0.375-0.314,0.942-0.289,1.105c0.062,0.379,0.252,0.672,0.574,0.834l0.133,0.033l0.081-0.004
			c2.124-0.077,3.599-0.122,5.323-0.122c1.675,0,3.123,0.046,5.534,0.122l0.056,0.002l0.137-0.021l0.075-0.04
			c0.266-0.133,0.454-0.426,0.516-0.803c0.025-0.166,0.083-0.73-0.354-1.169l-0.085-0.083l-1.756-0.139
			c-1.598-0.117-1.931-0.143-1.931-4.629v-2.12C420.395,77.788,420.462,77.551,422.237,74.488z"/>
		<path fill="#0080BB" d="M436.147,89.792l0.131,0.031l0.081-0.002c2.455-0.083,3.803-0.119,5.53-0.119h3.672
			c3.572,0,7.248,0.041,10.926,0.119l0.36,0.01L457,89.507c0.551-1.144,1.589-4.344,1.897-5.885l-0.013-0.166l-0.038-0.09
			c-0.22-0.491-0.753-0.713-1.182-0.713c-0.254,0-0.487,0.067-0.736,0.26l-0.092,0.115l-0.017,0.031
			c-1.069,2.141-2.107,3.41-2.648,3.711c-0.841,0.418-2.047,0.552-4.976,0.552c-3.312,0-4.14-0.372-4.533-0.762
			c-0.52-0.553-0.622-1.891-0.622-3.865v-5.754c0-0.229,0-0.466,0.01-0.503c0.077-0.044,0.418-0.044,0.78-0.044h2.367
			c1.408,0,2.457,0.033,3.006,0.189c0.474,0.118,0.699,0.414,0.859,1.136l0.395,1.666l0.063,0.127l0.025,0.029
			c0.2,0.241,0.547,0.377,0.947,0.377c0.462,0,0.843-0.183,1.053-0.553l0.043-0.135v-0.087c0-0.399-0.029-0.905-0.067-1.531
			c-0.044-0.739-0.096-1.573-0.096-2.386c0-0.851,0.05-1.72,0.098-2.513c0.037-0.628,0.065-1.171,0.065-1.669l-0.029-0.141
			l-0.044-0.077c-0.179-0.312-0.56-0.499-1.024-0.499c-0.401,0-0.745,0.137-0.946,0.377l-0.052,0.062l-0.397,1.86
			c-0.169,0.863-0.347,0.922-0.606,1.011c-0.41,0.135-1.643,0.216-3.293,0.216h-2.367c-0.36,0-0.699,0-0.757-0.025
			c-0.033-0.06-0.033-0.316-0.033-0.564V65.11c0-0.493,0-0.957,0.06-1.038c0.06-0.04,0.351-0.04,0.608-0.04h2.937
			c1.768,0,3.025,0.039,3.822,0.229c1.731,0.431,2.07,1.496,2.63,3.264l0.104,0.304l0.058,0.102l0.019,0.025
			c0.185,0.223,0.487,0.347,0.847,0.347c0.343,0,0.824-0.123,1.103-0.539l0.069-0.098l-0.071-0.772
			c-0.212-2.349-0.404-4.344-0.632-4.993l-0.169-0.47l-0.489,0.118c-0.424,0.106-3.168,0.106-5.374,0.106h-7.672
			c-1.589,0-2.935-0.033-4.851-0.121l-0.137,0.019l-0.073,0.038c-0.306,0.148-0.507,0.52-0.537,0.992
			c-0.031,0.447,0.114,0.805,0.393,0.992l0.06,0.038l0.836,0.129c1.885,0.225,1.997,0.239,1.997,4.591v14.692
			c0,4.367-0.229,4.388-2.026,4.546l-1.427,0.131l-0.177,0.071l-0.083,0.081c-0.377,0.375-0.318,0.942-0.289,1.107
			C435.637,89.337,435.826,89.63,436.147,89.792z"/>
		<path fill="#0080BB" d="M344.049,107.754l-0.187-0.052l-0.108,0.008c-1.296,0.077-2.338,0.119-4.142,0.119
			c-1.515,0-2.892-0.033-4.818-0.125l-0.123,0.023l-0.065,0.021c-0.339,0.127-0.576,0.435-0.653,0.849
			c-0.087,0.476,0.06,0.944,0.45,1.279l0.075,0.064l0.874,0.102c1.739,0.216,2.022,0.46,2.064,0.526
			c0.171,0.268,0.72,1.645,0.72,8.072c0,0,0,8.954-0.002,9.091c-1.2-1.265-2.463-2.678-4.011-4.407l-5.786-6.491
			c-4.995-5.588-6.462-7.831-6.817-8.731l-0.185-0.462l-0.495,0.079c-0.445,0.073-1.069,0.112-1.76,0.112
			c-0.707,0-2.861,0-4.62-0.127l-0.162,0.031l-0.083,0.04c-0.308,0.154-0.52,0.46-0.582,0.843c-0.067,0.441,0.06,0.89,0.418,1.248
			l0.079,0.075l0.894,0.102c1.005,0.129,1.766,0.412,2.135,0.782c0.657,0.718,0.728,1.342,0.728,2.499v12.097
			c0.004,1.772,0.012,6.483-0.47,7.729c-0.023,0.048-0.195,0.304-1.29,0.451l-1.196,0.137l-0.183,0.081l-0.081,0.081
			c-0.252,0.242-0.375,0.614-0.345,1.011c0.031,0.397,0.21,0.743,0.578,1.013l0.198,0.062l0.118-0.006
			c1.454-0.081,2.551-0.123,4.186-0.123c1.693,0,3.27,0.058,4.822,0.125l0.191-0.056l0.089-0.062
			c0.262-0.181,0.437-0.468,0.493-0.809c0.062-0.379-0.033-0.776-0.264-1.084l-0.166-0.222l-1.546-0.152
			c-1.132-0.087-1.525-0.36-1.575-0.454c-0.152-0.272-0.651-1.65-0.651-8.092v-8.844c0-0.375,0.002-0.853,0.027-1.302
			c0.545,0.63,1.232,1.444,1.895,2.222l0.239,0.285c0.689,0.815,1.331,1.573,1.743,2.041l9.412,10.714
			c3.12,3.545,4.612,5.305,5.151,6.073l0.185,0.265h0.323c0.659,0,1.182-0.335,1.386-0.941l0.012-0.131l-0.01-0.069
			c-0.054-0.464-0.118-2.06-0.118-7.03V118.09c-0.004-1.895-0.021-6.337,0.522-7.494c0.004-0.004,0.341-0.323,1.823-0.555
			l0.666-0.092l0.183-0.087l0.079-0.081c0.264-0.266,0.389-0.672,0.341-1.078C344.613,108.32,344.42,107.991,344.049,107.754z"/>
		<path fill="#0080BB" d="M359.462,110.045l1.09-0.085l0.15-0.052l0.071-0.048c0.297-0.196,0.447-0.58,0.416-1.046
			c-0.017-0.237-0.108-0.807-0.635-1.075l-0.152-0.035l-0.085,0.004c-2.137,0.089-3.495,0.121-5.007,0.121
			c-1.639,0-2.971-0.033-5.161-0.125l-0.156,0.031l-0.077,0.039c-0.479,0.243-0.553,0.87-0.564,1.055
			c-0.025,0.464,0.127,0.841,0.426,1.038l0.067,0.042l1.238,0.135c1.758,0.148,1.902,0.16,1.902,4.573v14.448
			c0,4.304-0.073,4.313-1.931,4.535l-1.109,0.135l-0.183,0.085l-0.077,0.077c-0.321,0.314-0.372,0.803-0.318,1.15
			c0.063,0.402,0.262,0.716,0.618,0.897l0.15,0.034l0.083-0.002c2.232-0.085,3.497-0.121,5.091-0.121
			c1.539,0,2.788,0.037,5.009,0.121l0.075,0.002l0.15-0.029l0.077-0.039c0.493-0.246,0.558-0.866,0.568-1.049
			c0.027-0.464-0.125-0.843-0.42-1.04l-0.06-0.042l-1.225-0.179c-1.854-0.221-1.927-0.231-1.927-4.535v-14.448
			C357.558,110.204,357.706,110.193,359.462,110.045z"/>
		<path fill="#0080BB" d="M358.082,101.979c0-1.3-1.113-2.688-2.771-2.688c-0.803,0-1.535,0.3-2.06,0.845
			c-0.512,0.53-0.778,1.238-0.753,1.985c0.048,1.646,1.179,2.752,2.813,2.752C356.917,104.874,358.082,103.655,358.082,101.979z"/>
		<path fill="#0080BB" d="M395.177,107.74l-0.169-0.038l-0.093,0.008c-1.275,0.083-2.511,0.119-3.89,0.119
			c-1.646,0-3.127-0.042-4.265-0.127l-0.185,0.038l-0.087,0.054c-0.308,0.177-0.52,0.537-0.558,0.959
			c-0.04,0.424,0.102,0.82,0.458,1.125l0.077,0.067l0.918,0.096c0.803,0.094,1.144,0.231,1.267,0.297
			c-0.017,0.241-0.083,0.601-0.316,1.215c-0.697,1.762-2.63,6.402-3.764,9.068c-0.297,0.682-0.666,1.565-1.078,2.538
			c-0.637,1.512-1.485,3.509-2.234,5.193c-1.821-4.223-3.562-8.584-5.199-12.709c-1.04-2.551-1.721-4.568-1.931-5.322
			c0.146-0.064,0.499-0.173,1.311-0.279l0.699-0.088l0.164-0.069l0.075-0.064c0.283-0.241,0.428-0.639,0.387-1.071
			c-0.046-0.428-0.26-0.788-0.649-1.005l-0.167-0.04l-0.09,0.006c-1.702,0.087-3.116,0.119-4.878,0.119
			c-1.735,0-3.023-0.035-4.269-0.127l-0.189,0.044l-0.09,0.056c-0.32,0.198-0.531,0.568-0.564,0.984
			c-0.027,0.408,0.127,0.797,0.472,1.088l0.079,0.071l0.919,0.096c1.356,0.16,1.851,0.682,2.779,2.946l7.144,17.613
			c0.83,2.045,1.465,3.884,1.843,5.315l0.079,0.308l0.293,0.115c0.275,0.11,0.557,0.165,0.836,0.165
			c0.295,0,0.578-0.081,0.872-0.277l0.133-0.162l0.039-0.114c0.689-2.17,2.634-6.942,4.194-10.531l2.191-4.993
			c1.926-4.356,3.443-7.471,4.502-9.252c0.468-0.751,0.924-1.069,1.627-1.13l1.442-0.09l0.173-0.169
			c0.295-0.3,0.353-0.782,0.308-1.134C395.736,108.256,395.549,107.952,395.177,107.74z"/>
		<path fill="#0080BB" d="M288.42,100.219c-0.503,0.557-0.757,1.335-0.68,2.045c0,1.685,0.976,2.69,2.609,2.69
			c1.56,0,2.692-1.165,2.692-2.771c0-1.354-1.03-2.813-2.692-2.813C289.604,99.37,288.917,99.671,288.42,100.219z"/>
		<path fill="#0080BB" d="M302.016,102.184c0-1.385-0.961-2.813-2.573-2.813c-1.706,0-2.729,1.473-2.729,2.908
			c0.044,1.627,1.119,2.677,2.729,2.677C300.959,104.954,302.016,103.816,302.016,102.184z"/>
		<path fill="#0080BB" d="M308.581,107.754l-0.183-0.052l-0.112,0.008c-1.552,0.09-2.619,0.119-4.225,0.119
			c-1.594,0-3.096-0.037-4.693-0.125l-0.185,0.048l-0.089,0.06c-0.262,0.171-0.439,0.479-0.495,0.845
			c-0.054,0.399,0.048,0.782,0.279,1.046l0.165,0.204l1.273,0.1c0.945,0.077,1.417,0.329,1.538,0.539
			c0.208,0.362,0.689,1.876,0.689,8.093v4.662c0,4.641-1.302,10.171-7.491,10.171c-5.195,0-7.614-3.243-7.614-10.208v-8.765
			c0-4.333,0.141-4.344,1.862-4.492l1.053-0.089l0.152-0.05l0.069-0.048c0.291-0.2,0.441-0.57,0.414-1.019
			c-0.012-0.177-0.083-0.78-0.635-1.063l-0.152-0.035l-0.085,0.006c-2.07,0.088-3.368,0.119-4.964,0.119
			c-1.512,0-2.867-0.031-5.082-0.125l-0.152,0.033l-0.079,0.037c-0.483,0.246-0.558,0.851-0.568,1.028
			c-0.029,0.454,0.127,0.828,0.483,1.063l0.073,0.048l1.175,0.094c1.72,0.148,1.86,0.16,1.86,4.492v9.578
			c0,4.937,1.076,8.132,3.383,10.048c1.847,1.579,4.537,2.38,7.995,2.38c3.273,0,6.418-1.213,8.205-3.164
			c2.022-2.164,3.006-5.474,3.006-10.121v-4.581c0-1.862,0-6.811,0.512-8.02c0.116-0.254,0.674-0.545,1.515-0.612l1.234-0.1
			l0.165-0.204c0.239-0.285,0.347-0.707,0.283-1.099C309.111,108.256,308.928,107.972,308.581,107.754z"/>
		<path fill="#0080BB" d="M552.166,129.456c-0.231-0.514-0.788-0.745-1.238-0.745c-0.264,0-0.506,0.073-0.768,0.268l-0.135,0.173
			c-1.205,2.42-2.207,3.441-2.598,3.655c-0.83,0.414-2.024,0.547-4.918,0.547c-3.275,0-4.094-0.379-4.46-0.743
			c-0.495-0.524-0.597-1.837-0.597-3.79V123.1c0-0.193,0-0.412-0.004-0.437c0.071-0.036,0.387-0.036,0.72-0.036h2.355
			c1.39,0,2.426,0.031,2.969,0.185c0.439,0.11,0.649,0.391,0.803,1.076l0.389,1.654l0.1,0.181c0.212,0.26,0.578,0.41,1.001,0.41
			c0.487,0,0.89-0.2,1.119-0.605l0.04-0.15v-0.087c0-0.401-0.033-0.934-0.071-1.558c-0.042-0.724-0.09-1.542-0.09-2.334
			c0-0.83,0.048-1.672,0.092-2.473c0.037-0.626,0.069-1.188,0.069-1.702l-0.038-0.156l-0.04-0.073
			c-0.191-0.339-0.595-0.543-1.084-0.543c-0.41,0-0.782,0.15-0.996,0.4l-0.052,0.066l-0.403,1.879
			c-0.166,0.82-0.321,0.873-0.554,0.95c-0.414,0.137-1.629,0.217-3.254,0.217h-2.355c-0.329,0-0.641,0-0.687-0.013
			c-0.029-0.058-0.029-0.283-0.029-0.505v-8.112c0-0.458,0-0.892,0.048-0.967c0.058-0.035,0.316-0.035,0.543-0.035h2.923
			c1.473,0,2.95,0.027,3.786,0.221c1.683,0.428,2.018,1.471,2.567,3.206l0.1,0.291l0.069,0.133l0.021,0.025
			c0.2,0.239,0.518,0.372,0.899,0.372c0.375,0,0.865-0.135,1.165-0.591l0.066-0.096l-0.066-0.743
			c-0.218-2.449-0.404-4.377-0.634-5.026l-0.189-0.539l-0.549,0.142c-0.416,0.102-3.139,0.102-5.326,0.102h-7.627
			c-1.639,0-3.021-0.037-4.841-0.125l-0.156,0.031l-0.075,0.039c-0.443,0.227-0.545,0.753-0.566,1.048
			c-0.025,0.462,0.127,0.839,0.414,1.038l0.062,0.042l0.866,0.139c1.818,0.221,1.926,0.235,1.926,4.496v14.607
			c0,4.281-0.221,4.302-1.951,4.452l-1.558,0.144l-0.164,0.158c-0.318,0.32-0.366,0.809-0.306,1.157
			c0.065,0.401,0.266,0.712,0.616,0.888l0.15,0.034l0.358-0.011c2.201-0.069,3.532-0.112,5.224-0.112h3.651
			c3.428,0,6.978,0.038,10.858,0.121l0.398,0.008l0.171-0.36c0.549-1.132,1.585-4.325,1.899-5.875l-0.017-0.194L552.166,129.456z"/>
		<path fill="#0080BB" d="M569.5,120.058l-3.243-2.03c-1.178-0.734-3.16-2.288-3.16-4.463c0-1.77,0.73-3.882,4.207-3.882
			c3.347,0,4.365,2.085,4.943,4.192l0.1,0.173c0.193,0.227,0.495,0.353,0.853,0.353c0.397,0,0.907-0.162,1.207-0.599l0.056-0.175
			v-0.102c0-1.852-0.397-4.169-0.77-5.164l-0.148-0.408h-0.437c-0.258,0-0.76-0.069-1.259-0.221
			c-0.982-0.266-2.534-0.549-3.934-0.549c-5.322,0-8.898,3.054-8.898,7.602c0,3.649,2.534,6.092,4.662,7.496l3.859,2.523
			c2.673,1.72,3.039,3.493,3.039,5.157c0,2.01-1.373,4.038-4.446,4.038c-3.911,0-5.63-3.042-6.395-5.628l-0.046-0.108l-0.019-0.027
			c-0.179-0.27-0.502-0.422-0.884-0.422c-0.341,0-0.838,0.137-1.179,0.614l-0.058,0.191l0.004,0.112
			c0.087,1.954,0.61,4.916,1.209,6.017l0.119,0.125l0.083,0.046c1.024,0.593,3.252,1.587,6.638,1.587
			c5.542,0,9.264-3.266,9.264-8.128C574.867,125.011,573.109,122.288,569.5,120.058z"/>
		<path fill="#0080BB" d="M586.968,104.874c1.608,0,2.773-1.219,2.773-2.894c0-1.3-1.111-2.688-2.773-2.688
			c-0.803,0-1.535,0.3-2.058,0.845c-0.51,0.53-0.78,1.236-0.755,1.98C584.201,103.766,585.332,104.874,586.968,104.874z"/>
		<path fill="#0080BB" d="M592.367,133.779l-1.227-0.179c-1.854-0.221-1.928-0.231-1.928-4.535v-14.448
			c0-4.413,0.146-4.425,1.904-4.573l1.094-0.085l0.15-0.052l0.073-0.048c0.291-0.198,0.441-0.576,0.414-1.042
			c-0.023-0.291-0.123-0.817-0.635-1.078l-0.154-0.035l-0.085,0.004c-2.137,0.089-3.493,0.121-5.007,0.121
			c-1.643,0-2.973-0.033-5.161-0.125l-0.154,0.031l-0.077,0.039c-0.324,0.164-0.535,0.56-0.564,1.055
			c-0.027,0.464,0.125,0.841,0.479,1.074l0.071,0.048l1.179,0.092c1.76,0.148,1.902,0.16,1.902,4.573v14.448
			c0,4.304-0.071,4.313-1.93,4.535l-1.115,0.135l-0.187,0.085l-0.081,0.081c-0.387,0.395-0.331,0.982-0.304,1.151
			c0.065,0.399,0.262,0.711,0.616,0.892l0.152,0.034l0.083-0.002c2.224-0.085,3.485-0.121,5.089-0.121
			c1.577,0,2.923,0.041,5.009,0.121l0.075,0.002l0.152-0.029l0.077-0.039c0.327-0.165,0.537-0.558,0.568-1.057
			c0.027-0.46-0.127-0.838-0.422-1.034L592.367,133.779z"/>
		<path fill="#0080BB" d="M523.317,106.65c-0.185,0-0.351,0.029-0.582,0.123l-0.158,0.131l-0.054,0.1
			c-0.437,0.745-0.481,0.824-2.627,0.824h-16.758c-1.928,0-2.395-0.139-2.528-0.838l-0.083-0.167l-0.075-0.073
			c-0.177-0.171-0.431-0.254-0.776-0.254c-0.154,0-0.533,0.017-0.774,0.181l-0.223,0.143l-0.05,0.27
			c-0.283,1.608-0.878,4.154-1.517,5.94l-0.094,0.25l0.125,0.245c0.22,0.422,0.745,0.716,1.286,0.716
			c0.268,0,0.51-0.075,0.763-0.273l0.141-0.193c0.395-0.907,0.764-1.764,1.671-2.592c0.82-0.753,2.873-0.851,4.57-0.851h2.23
			c0.256,0,0.522,0,0.562,0.013c0.037,0.067,0.037,0.372,0.037,0.668v18.133c0,4.277-0.221,4.298-1.947,4.448l-1.535,0.141
			l-0.202,0.077c-0.341,0.214-0.528,0.624-0.507,1.096c0.01,0.175,0.075,0.762,0.624,1.036l0.075,0.039l0.389-0.013
			c2.453-0.075,3.805-0.115,5.388-0.115c1.606,0,2.989,0.044,5.29,0.123l0.075,0.002l0.154-0.029l0.077-0.042
			c0.331-0.168,0.543-0.566,0.566-1.061c0.027-0.462-0.131-0.838-0.433-1.03l-0.064-0.041l-1.519-0.181
			c-1.756-0.148-1.86-0.158-1.86-4.448v-18.193c0-0.187,0-0.449,0.014-0.607c0.154-0.015,0.402-0.015,0.541-0.015h2.877
			c2.109,0,3.528,0.293,4.34,0.893c0.187,0.139,0.558,0.828,0.776,2.621l0.065,0.167l0.064,0.073
			c0.208,0.248,0.572,0.395,0.972,0.395c0.51,0,0.942-0.231,1.153-0.674l0.035-0.171l-0.008-0.094
			c-0.116-1.136,0.16-4.342,0.589-5.942l0.064-0.233l-0.11-0.218C524.11,106.699,523.548,106.65,523.317,106.65z"/>
		<path fill="#0080BB" d="M421.171,129.454c-0.233-0.514-0.79-0.743-1.238-0.743c-0.262,0-0.505,0.073-0.768,0.268l-0.135,0.173
			c-1.211,2.425-2.21,3.441-2.598,3.655c-0.828,0.414-2.024,0.547-4.916,0.547c-3.275,0-4.094-0.379-4.46-0.743
			c-0.501-0.526-0.601-1.839-0.601-3.79V123.1c0-0.193,0-0.412-0.004-0.437c0.071-0.036,0.387-0.036,0.72-0.036h2.357
			c1.388,0,2.424,0.031,2.971,0.185c0.439,0.11,0.647,0.391,0.803,1.076l0.387,1.654l0.1,0.181c0.212,0.26,0.578,0.41,1.005,0.41
			c0.483,0,0.884-0.198,1.115-0.605l0.04-0.15v-0.087c0-0.401-0.031-0.934-0.071-1.558c-0.042-0.722-0.09-1.542-0.09-2.334
			c0-0.83,0.048-1.672,0.092-2.473c0.038-0.626,0.069-1.188,0.069-1.702l-0.036-0.156l-0.042-0.077
			c-0.194-0.335-0.599-0.539-1.082-0.539c-0.41,0-0.782,0.15-0.996,0.4l-0.052,0.066l-0.402,1.877
			c-0.168,0.822-0.324,0.874-0.557,0.951c-0.414,0.137-1.629,0.217-3.254,0.217h-2.357c-0.329,0-0.643,0-0.689-0.013
			c-0.027-0.058-0.027-0.283-0.027-0.505v-8.112c0-0.458,0-0.892,0.05-0.967c0.056-0.035,0.318-0.035,0.547-0.035h2.919
			c1.473,0,2.95,0.027,3.788,0.221c1.685,0.428,2.016,1.473,2.565,3.214l0.096,0.283l0.071,0.133l0.021,0.025
			c0.2,0.239,0.518,0.372,0.897,0.372c0.374,0,0.861-0.133,1.173-0.589l0.065-0.098l-0.085-0.913
			c-0.204-2.278-0.393-4.215-0.618-4.856l-0.191-0.539l-0.547,0.142c-0.416,0.102-3.139,0.102-5.328,0.102h-7.625
			c-1.639,0-3.019-0.037-4.841-0.125l-0.15,0.031l-0.079,0.039c-0.46,0.233-0.549,0.803-0.566,1.04
			c-0.033,0.466,0.119,0.849,0.416,1.046l0.06,0.042l0.865,0.139c1.82,0.221,1.928,0.235,1.928,4.496v14.607
			c0,4.281-0.223,4.302-1.953,4.452l-1.556,0.144l-0.166,0.16c-0.395,0.398-0.335,0.992-0.308,1.167
			c0.071,0.4,0.27,0.703,0.614,0.874l0.15,0.036l0.366-0.011c2.197-0.069,3.522-0.112,5.22-0.112h3.649
			c3.429,0,6.98,0.038,10.86,0.121l0.399,0.008l0.171-0.36c0.549-1.132,1.585-4.325,1.901-5.881l-0.019-0.191L421.171,129.454z"/>
		<path fill="#0080BB" d="M453.488,134.312l-0.139-0.029c-0.909-0.066-1.798-0.422-2.442-0.988
			c-2.757-2.314-4.968-5.715-8.028-10.647c-0.062-0.096-0.102-0.169-0.131-0.225c1.485-0.67,5.093-2.757,5.093-7.194
			c0-3.564-2.01-5.355-3.691-6.225c-2.095-1.142-4.754-1.296-7.074-1.296c-3.689,0-6.584,0.104-9.166,0.337l-0.164,0.054
			c-0.329,0.166-0.547,0.52-0.585,0.955c-0.037,0.451,0.144,0.895,0.458,1.123l0.067,0.046l1.523,0.223
			c1.049,0.131,1.24,0.154,1.24,4.134v14.563c0,4.229-0.071,4.236-1.891,4.456l-1.125,0.137l-0.198,0.1l-0.083,0.096
			c-0.304,0.35-0.341,0.845-0.271,1.192c0.075,0.37,0.269,0.651,0.608,0.818l0.152,0.035l0.09-0.002
			c1.849-0.077,3.339-0.121,5.041-0.121c1.658,0,3.015,0.044,4.877,0.123l0.154-0.029l0.077-0.039
			c0.302-0.152,0.501-0.483,0.56-0.94c0.054-0.462-0.081-0.872-0.422-1.163l-0.073-0.06l-1.03-0.148
			c-1.825-0.254-1.895-0.262-1.895-4.456v-5.11c0-0.094,0-0.21-0.023-0.21h-0.002c0.108-0.06,0.637-0.06,1.308-0.06
			c1.435,0,1.874,0.304,2.37,1.028c0.616,0.895,1.338,2.035,2.033,3.137c0.686,1.092,1.396,2.22,1.947,2.998
			c2.858,4.069,5.022,5.374,8.906,5.374c0.834,0,1.541-0.087,2.035-0.26l0.137-0.081c0.271-0.214,0.408-0.566,0.356-0.911
			C454.045,134.718,453.831,134.443,453.488,134.312z M441.128,120.373c-1.092,0.822-2.609,0.928-3.809,0.928
			c-1.386,0-2.006-0.04-2.284-0.073c-0.012-0.227-0.012-0.585-0.012-0.845v-9.495c0-0.676,0-0.676,2.012-0.676
			c4.333,0,5.869,3.033,5.869,5.627C442.905,117.954,442.322,119.439,441.128,120.373z"/>
		<path fill="#0080BB" d="M486.096,104.874c1.604,0,2.769-1.219,2.769-2.894c0-1.3-1.113-2.688-2.769-2.688
			c-0.805,0-1.539,0.3-2.066,0.845c-0.51,0.533-0.778,1.238-0.749,1.985C483.329,103.768,484.461,104.874,486.096,104.874z"/>
		<path fill="#0080BB" d="M490.242,110.045l1.1-0.096l0.21-0.085c0.293-0.196,0.449-0.576,0.422-1.042
			c-0.011-0.183-0.083-0.801-0.633-1.082l-0.154-0.035l-0.085,0.004c-2.139,0.089-3.497,0.121-5.005,0.121
			c-1.644,0-2.977-0.033-5.162-0.125l-0.154,0.031l-0.075,0.039c-0.478,0.239-0.557,0.859-0.57,1.048
			c-0.027,0.468,0.125,0.847,0.483,1.082l0.073,0.048l1.177,0.092c1.756,0.148,1.898,0.16,1.898,4.573v14.448
			c0,4.304-0.071,4.313-1.927,4.535l-1.111,0.135l-0.187,0.085l-0.081,0.079c-0.318,0.318-0.366,0.809-0.306,1.157
			c0.064,0.401,0.266,0.712,0.618,0.888l0.15,0.034l0.085-0.002c2.222-0.085,3.481-0.121,5.089-0.121
			c1.529,0,2.779,0.037,5.007,0.121l0.075,0.002l0.154-0.029l0.077-0.039c0.323-0.165,0.535-0.558,0.564-1.061
			c0.021-0.458-0.131-0.834-0.42-1.028l-0.063-0.042l-1.225-0.179c-1.852-0.221-1.926-0.231-1.926-4.535v-14.448
			C488.34,110.204,488.484,110.193,490.242,110.045z"/>
		<path fill="#0080BB" d="M468.285,120.058l-3.246-2.03c-1.177-0.734-3.154-2.289-3.154-4.463c0-1.77,0.728-3.882,4.205-3.882
			c3.349,0,4.365,2.085,4.945,4.192l0.098,0.173c0.193,0.227,0.495,0.353,0.851,0.353c0.397,0,0.909-0.162,1.205-0.599l0.058-0.175
			v-0.102c0-1.852-0.397-4.169-0.77-5.164l-0.148-0.408h-0.435c-0.27,0-0.784-0.075-1.259-0.221
			c-0.986-0.266-2.534-0.549-3.936-0.549c-5.322,0-8.898,3.054-8.898,7.602c0,3.649,2.534,6.092,4.66,7.496l3.861,2.523
			c2.673,1.72,3.041,3.493,3.041,5.157c0,2.01-1.375,4.038-4.45,4.038c-3.907,0-5.629-3.042-6.395-5.634l-0.046-0.102l-0.017-0.027
			c-0.179-0.27-0.503-0.422-0.884-0.422c-0.341,0-0.838,0.137-1.179,0.614l-0.058,0.191l0.004,0.11
			c0.081,1.899,0.608,4.912,1.207,6.023l0.121,0.125l0.081,0.048c1.032,0.589,3.27,1.581,6.639,1.581c5.538,0,9.26-3.266,9.26-8.128
			C473.646,125.009,471.894,122.286,468.285,120.058z"/>
	</g>
	<g>
		<path fill="#101820" d="M285.856,155.201l0.772-0.06l0.055-0.037c0.148-0.101,0.225-0.305,0.209-0.56
			c-0.006-0.103-0.046-0.449-0.293-0.576l-0.059-0.03l-0.066,0.003c-1.393,0.057-2.361,0.088-3.487,0.088
			c-1.189,0-2.127-0.029-3.548-0.088l-0.067-0.003l-0.06,0.031c-0.247,0.13-0.284,0.479-0.289,0.583
			c-0.013,0.252,0.064,0.453,0.212,0.553l0.055,0.036l0.769,0.06c1.405,0.12,1.488,0.309,1.488,3.363v10.047
			c0,3.013-0.07,3.169-1.498,3.336l-0.789,0.098l-0.061,0.06c-0.172,0.169-0.198,0.445-0.165,0.648
			c0.036,0.219,0.139,0.385,0.284,0.456l0.057,0.027l0.063-0.002c1.422-0.055,2.361-0.082,3.548-0.082
			c1.124,0,2.092,0.028,3.488,0.082l0.062,0.002l0.056-0.026c0.249-0.119,0.292-0.463,0.299-0.565
			c0.018-0.262-0.059-0.47-0.211-0.57l-0.816-0.127c-1.432-0.167-1.502-0.323-1.502-3.336v-10.047
			C284.363,155.51,284.447,155.321,285.856,155.201z"/>
		<path fill="#101820" d="M282.988,151.014c1.011,0,1.745-0.769,1.745-1.827c0-0.816-0.701-1.69-1.745-1.69
			c-0.511,0-0.976,0.19-1.307,0.535c-0.32,0.332-0.486,0.775-0.468,1.249C281.241,150.333,281.938,151.014,282.988,151.014z"/>
		<path fill="#101820" d="M322.58,162.503l-2.256-1.413c-0.852-0.53-2.281-1.658-2.281-3.258c0-1.077,0.404-2.885,3.106-2.885
			c2.468,0,3.218,1.607,3.597,3.008l0.051,0.097c0.107,0.126,0.287,0.188,0.499,0.178c0.196-0.011,0.473-0.092,0.605-0.286
			l0.043-0.063v-0.077c0-1.158-0.239-2.774-0.522-3.53l-0.061-0.162h-0.173c-0.185,0-0.551-0.05-0.928-0.161
			c-0.887-0.235-1.892-0.376-2.687-0.376c-3.592,0-6.006,2.052-6.006,5.104c0,2.456,1.716,4.109,3.158,5.063l2.683,1.754
			c2.033,1.302,2.203,2.612,2.203,3.738c0,1.38-0.859,2.992-3.282,2.992c-2.844,0-4.076-2.188-4.608-4.022l-0.035-0.073
			c-0.092-0.132-0.251-0.206-0.45-0.209c-0.181-0.008-0.48,0.071-0.638,0.286l-0.052,0.071l0.003,0.088
			c0.054,1.278,0.419,3.374,0.793,4.061l0.034,0.061l0.06,0.035c0.555,0.324,2.106,1.08,4.526,1.08c3.747,0,6.264-2.198,6.264-5.471
			C326.225,165.86,325.032,164.02,322.58,162.503z"/>
		<path fill="#101820" d="M371.092,153.256l-0.076,0.032l-0.042,0.073c-0.34,0.592-0.442,0.667-1.984,0.667h-11.535
			c-0.016,0-0.03,0-0.045,0c-1.268,0-1.884-0.035-2.003-0.672l-0.014-0.073l-0.052-0.054c-0.195-0.206-0.705-0.13-0.851-0.038
			l-0.093,0.06l-0.019,0.108c-0.194,1.126-0.621,2.919-1.061,4.167l-0.035,0.102l0.049,0.096c0.094,0.182,0.294,0.327,0.523,0.381
			c0.215,0.05,0.426,0.013,0.581-0.102l0.054-0.039l0.026-0.061c0.287-0.649,0.559-1.263,1.207-1.859
			c0.615-0.565,2.016-0.642,3.305-0.642h1.553c0.199,0,0.501,0,0.553,0.04c0.04,0.052,0.04,0.336,0.04,0.611v12.616
			c0,3.028-0.172,3.16-1.52,3.276l-1.015,0.087l-0.108,0.035c-0.179,0.108-0.279,0.33-0.268,0.593
			c0.009,0.201,0.089,0.45,0.287,0.549l0.056,0.027l0.062-0.002c1.797-0.054,2.786-0.083,3.918-0.083
			c1.145,0,2.146,0.031,3.683,0.083l0.063,0.002l0.056-0.027c0.249-0.123,0.289-0.472,0.296-0.575
			c0.017-0.257-0.061-0.462-0.211-0.561l-1.017-0.128c-1.396-0.118-1.465-0.271-1.465-3.276v-12.657
			c0-0.257-0.001-0.522,0.033-0.572c0.054-0.038,0.344-0.038,0.535-0.038h2.001c1.509,0,2.53,0.216,3.128,0.661
			c0.121,0.087,0.423,0.445,0.604,1.883l0.009,0.073l0.048,0.057c0.158,0.187,0.445,0.226,0.646,0.204
			c0.235-0.027,0.418-0.141,0.503-0.309l0.032-0.065l-0.007-0.072c-0.082-0.809,0.112-3.075,0.414-4.197l0.025-0.094l-0.045-0.087
			C371.776,153.179,371.296,153.168,371.092,153.256z"/>
		<path fill="#101820" d="M413.336,171.948c-1.043-0.121-1.37-0.396-2.191-2.827l-3.99-11.715c-0.385-1.124-0.782-2.286-1.112-3.396
			c-0.076-0.273-0.325-0.437-0.666-0.437h-0.115l-0.075,0.088c-0.316,0.372-0.756,0.822-1.348,0.994l-0.219,0.064l0.044,0.224
			c0.074,0.381-0.083,0.883-0.464,1.868l-2.882,7.62c-0.805,2.147-1.438,3.71-1.901,4.852c-0.224,0.551-0.415,1.022-0.576,1.438
			c-0.397,1.011-1.001,1.186-1.484,1.226l-1.01,0.092l-0.061,0.05c-0.132,0.11-0.2,0.296-0.19,0.523
			c0.009,0.197,0.082,0.453,0.266,0.58l0.068,0.048l0.618-0.025c0.676-0.03,1.44-0.063,2.158-0.063l1.067,0.022
			c0.752,0.015,1.346,0.025,1.854,0.062l0.066,0.005l0.059-0.028c0.189-0.089,0.315-0.286,0.337-0.527
			c0.022-0.253-0.069-0.485-0.24-0.607l-0.056-0.04l-1.001-0.091c-0.589-0.049-0.589-0.154-0.589-0.315
			c0-0.17,0.079-0.689,0.607-2.265l0.987-2.961c0.15-0.453,0.194-0.511,0.835-0.511h4.262c0.748,0,0.758,0.03,0.917,0.533
			l1.245,3.84c0.164,0.495,0.353,1.104,0.353,1.419c0,0.059-0.191,0.206-0.763,0.26l-0.885,0.092l-0.054,0.039
			c-0.162,0.115-0.249,0.331-0.232,0.577c0.017,0.249,0.136,0.456,0.318,0.553l0.06,0.031l0.54-0.021
			c0.74-0.03,1.662-0.067,2.762-0.067c1.295,0,2.297,0.034,3.402,0.086l0.097,0.004l0.074-0.061c0.175-0.145,0.228-0.419,0.22-0.611
			c-0.009-0.218-0.093-0.394-0.236-0.493L413.336,171.948z M406.54,164.22c-0.026,0.019-0.127,0.051-0.514,0.051h-3.468
			c-0.129,0-0.35,0-0.46-0.017c0.019-0.09,0.073-0.244,0.103-0.329l1.774-4.906c0.182-0.492,0.344-0.903,0.463-1.19
			c0.126,0.334,0.27,0.76,0.401,1.151l1.569,4.744C406.505,164.01,406.545,164.183,406.54,164.22z"/>
		<path fill="#101820" d="M460.757,153.935l-0.08,0.005c-0.919,0.058-1.651,0.089-2.888,0.089c-0.998,0-1.929-0.024-3.317-0.089
			l-0.054-0.002l-0.05,0.02c-0.174,0.068-0.296,0.235-0.334,0.458c-0.045,0.261,0.035,0.524,0.204,0.672l0.059,0.052l0.554,0.062
			c0.943,0.119,1.443,0.264,1.57,0.45c0.158,0.25,0.525,1.306,0.525,5.706v6.041c0,0.243,0,0.521-0.012,0.73
			c-0.951-0.988-1.948-2.104-3.182-3.484l-3.933-4.408l-0.048-0.055c-2.782-3.125-4.374-5.171-4.731-6.083l-0.073-0.188
			l-0.199,0.032c-0.336,0.055-0.796,0.086-1.26,0.086c-0.492,0-1.991,0-3.17-0.088l-0.07-0.006l-0.062,0.032
			c-0.159,0.081-0.269,0.246-0.302,0.453c-0.039,0.247,0.033,0.504,0.185,0.655l0.062,0.062l0.562,0.063
			c0.748,0.099,1.305,0.308,1.599,0.596c0.525,0.581,0.552,1.089,0.552,1.87v8.394c0.002,1.366,0.005,4.564-0.347,5.47
			c-0.05,0.113-0.253,0.317-1.038,0.419l-0.849,0.096l-0.062,0.062c-0.132,0.132-0.199,0.343-0.181,0.563
			c0.019,0.223,0.117,0.412,0.271,0.521l0.071,0.05l0.087-0.004c0.985-0.054,1.742-0.083,2.917-0.083
			c1.107,0,2.118,0.033,3.295,0.083l0.087,0.004l0.07-0.052c0.14-0.101,0.232-0.26,0.261-0.447c0.033-0.215-0.021-0.436-0.149-0.607
			l-0.065-0.089l-0.992-0.097c-0.787-0.063-1.156-0.251-1.242-0.41c-0.303-0.539-0.477-2.624-0.477-5.719v-6.152
			c0-0.415,0.007-0.948,0.053-1.35c0.469,0.526,1.223,1.417,1.902,2.221c0.429,0.507,0.821,0.97,1.081,1.27l6.545,7.448
			c2.168,2.466,3.21,3.695,3.596,4.242l0.074,0.106h0.13c0.384,0,0.673-0.18,0.773-0.481l0.018-0.053l-0.007-0.056
			c-0.039-0.328-0.085-1.446-0.085-4.911l-0.001-7.124c-0.005-1.444-0.015-4.449,0.399-5.321c0.037-0.067,0.375-0.296,1.392-0.457
			l0.477-0.065l0.061-0.061c0.142-0.143,0.214-0.374,0.188-0.604c-0.024-0.213-0.131-0.393-0.291-0.493L460.757,153.935z"/>
		<path fill="#101820" d="M499.587,162.552c-0.116-0.021-0.191-0.041-0.241-0.062c1.415-0.697,2.785-1.742,2.785-3.981
			c0-1.702-0.812-3.034-2.279-3.748c-1.421-0.728-3.34-0.82-4.853-0.82c-2.409,0-4.401,0.074-6.09,0.226l-0.09,0.025
			c-0.18,0.091-0.3,0.283-0.321,0.516c-0.022,0.246,0.073,0.481,0.25,0.614l0.057,0.043l0.981,0.094
			c1.021,0.09,1.15,0.369,1.15,2.489v10.724c0,3.047-0.102,3.064-1.343,3.279l-0.587,0.1l-0.056,0.055
			c-0.144,0.141-0.206,0.378-0.167,0.635c0.033,0.224,0.138,0.395,0.284,0.471l0.059,0.03l0.924-0.033
			c0.73-0.028,1.485-0.058,2.379-0.058c0.643,0,1.346,0.026,1.984,0.051c0.537,0.02,1.029,0.038,1.403,0.038
			c4.928,0,7.754-2.087,7.754-5.726C503.571,164.181,500.967,162.811,499.587,162.552z M494.96,162.239
			c-0.444,0.019-1.055,0.042-1.159-0.058c-0.052-0.05-0.052-0.291-0.052-0.485v-5.727c0-0.43,0.072-0.451,0.247-0.506
			c0.221-0.099,0.624-0.149,1.197-0.149c0.928,0,3.955,0.257,3.955,3.562C499.148,161.18,497.974,162.123,494.96,162.239z
			 M496.323,171.861c-1.009,0-1.638-0.216-2.042-0.704c-0.532-0.617-0.532-2.345-0.532-2.912v-4.175c0-0.373,0-0.485,1.389-0.485
			c4.672,0,5.369,2.865,5.369,4.573C500.507,171.38,497.885,171.861,496.323,171.861z"/>
		<path fill="#101820" d="M551.068,153.978L551,153.936l-0.079,0.004c-0.977,0.058-1.735,0.089-2.946,0.089
			c-1.085,0-2.132-0.029-3.202-0.089l-0.084-0.004l-0.069,0.047c-0.139,0.094-0.234,0.263-0.263,0.464
			c-0.031,0.221,0.024,0.434,0.151,0.586l0.067,0.08l0.81,0.062c0.64,0.054,1.072,0.22,1.217,0.466
			c0.188,0.333,0.503,1.519,0.503,5.717v3.249c0,3.311-0.936,7.258-5.393,7.258c-3.74,0-5.482-2.315-5.482-7.287v-6.093
			c0-3.007,0.082-3.192,1.462-3.31l0.742-0.059l0.055-0.036c0.15-0.102,0.229-0.301,0.215-0.546
			c-0.013-0.207-0.097-0.464-0.297-0.566l-0.06-0.03l-0.065,0.003c-1.332,0.058-2.277,0.089-3.457,0.089
			c-1.166,0-2.126-0.031-3.489-0.089l-0.067-0.003l-0.061,0.032c-0.194,0.103-0.277,0.359-0.289,0.564
			c-0.015,0.244,0.061,0.441,0.207,0.543l0.056,0.039l0.771,0.059c1.386,0.117,1.468,0.303,1.468,3.31v6.657
			c0,3.419,0.705,5.532,2.284,6.85c1.248,1.069,3.079,1.611,5.443,1.611c2.229,0,4.363-0.819,5.57-2.137
			c1.376-1.477,2.045-3.739,2.045-6.917v-3.191c0-1.428,0-4.772,0.367-5.647c0.128-0.274,0.602-0.484,1.206-0.535l0.784-0.062
			l0.068-0.083c0.131-0.162,0.192-0.406,0.156-0.624C551.313,154.222,551.215,154.069,551.068,153.978z"/>
		<path fill="#101820" d="M592.81,168.645c-0.209-0.099-0.603-0.155-0.823,0.027l-0.072,0.102c-0.61,1.557-1.329,2.412-1.753,2.667
			c-0.402,0.228-1.001,0.336-3.321,0.336c-2.317,0-2.696-0.376-2.893-0.571c-0.446-0.475-0.525-1.167-0.525-2.88v-9.816
			c0-3.001,0.084-3.187,1.495-3.308l0.737-0.061l0.053-0.036c0.151-0.1,0.229-0.304,0.214-0.559
			c-0.006-0.104-0.045-0.453-0.295-0.579l-0.059-0.03l-0.065,0.003c-1.32,0.055-2.31,0.087-3.457,0.087
			c-1.126,0-2.077-0.028-3.658-0.087l-0.066-0.002l-0.059,0.03c-0.246,0.127-0.285,0.477-0.291,0.581
			c-0.015,0.253,0.062,0.455,0.209,0.555l0.055,0.037l0.767,0.061c1.533,0.123,1.608,0.277,1.608,3.308v10.159
			c0,2.98-0.068,3.134-1.466,3.277l-0.938,0.093l-0.063,0.064c-0.142,0.144-0.202,0.384-0.161,0.643
			c0.035,0.221,0.138,0.39,0.281,0.464l0.059,0.03l0.065-0.002c1.614-0.06,2.502-0.087,3.659-0.087h2.594
			c3.084,0,5.641,0.031,7.015,0.087l0.158,0.006l0.073-0.14c0.397-0.759,1.215-3.67,1.215-4.071
			C593.1,168.957,593.072,168.769,592.81,168.645z"/>
	</g>
	<rect x="256.415" y="53.168" fill="#0080BB" width="1.554" height="120.334"/>
	<g>
		<path fill="#0080BB" d="M100.408,84.356c3.678,0,6.348-2.778,6.348-6.606c0-2.978-2.551-6.166-6.348-6.166
			c-1.827,0-3.494,0.684-4.693,1.926c-1.177,1.215-1.794,2.833-1.737,4.555C94.09,81.828,96.675,84.356,100.408,84.356z"/>
		<path fill="#0080BB" d="M194.447,84.754c3.64,0,6.282-2.717,6.282-6.459c0-3.146-2.402-6.541-6.282-6.541
			c-1.747,0-3.351,0.707-4.517,1.99c-1.159,1.285-1.767,3.117-1.588,4.726C188.342,82.346,190.681,84.754,194.447,84.754z"/>
		<path fill="#0080BB" d="M213.99,84.754c3.548,0,6.026-2.656,6.026-6.459c0-3.215-2.254-6.541-6.026-6.541
			c-3.982,0-6.361,3.433-6.361,6.767C207.735,82.308,210.232,84.754,213.99,84.754z"/>
		<path fill="#0080BB" d="M112.444,146.04l-0.229-0.156l-2.711-0.385c-3.779-0.45-3.852-0.459-3.852-9.45v-31.212
			c0-9.211,0.143-9.223,3.79-9.534l2.32-0.183l0.39-0.106l0.281-0.165c0.754-0.494,1.146-1.434,1.074-2.583
			c-0.086-1.225-0.638-2.147-1.554-2.599l-0.456-0.126l-0.242,0.014c-4.065,0.163-7.137,0.257-10.808,0.257
			c-3.752,0-6.684-0.089-11.204-0.257l-0.293,0.046l-0.307,0.127c-1.16,0.58-1.38,1.964-1.421,2.535
			c-0.075,1.156,0.33,2.093,1.121,2.626l0.275,0.206l2.655,0.208c3.654,0.312,3.796,0.323,3.796,9.534v31.212
			c0,8.995-0.072,9.003-3.853,9.451l-2.358,0.287l-0.493,0.178l-0.341,0.285c-1.012,1.017-0.809,2.524-0.759,2.811
			c0.162,0.998,0.68,1.743,1.5,2.154l0.457,0.127l0.244-0.011c4.311-0.167,7.337-0.258,10.981-0.258c3.5,0,6.5,0.091,10.814,0.258
			l0.511-0.048l0.312-0.129c1.163-0.588,1.382-1.977,1.423-2.554C113.572,147.468,113.183,146.534,112.444,146.04z"/>
		<path fill="#0080BB" d="M150.454,116.288l-7.019-4.392c-2.485-1.539-6.655-4.799-6.655-9.339c0-3.667,1.517-8.038,8.743-8.038
			c6.967,0,9.089,4.234,10.343,8.81l0.179,0.354l0.094,0.125c0.479,0.585,1.232,0.907,2.12,0.907c0.928,0,2.17-0.375,2.873-1.428
			l0.172-0.438l0.029-0.378c0-3.99-0.887-9.151-1.684-11.288l-0.409-1.107h-1.18c-0.542,0-1.614-0.159-2.63-0.468
			c-2.153-0.577-5.541-1.194-8.594-1.194c-11.71,0-19.579,6.741-19.579,16.773c0,8.053,5.563,13.416,10.232,16.499l8.343,5.446
			c5.633,3.624,6.41,7.354,6.41,10.844c0,4.175-2.865,8.388-9.265,8.388c-8.236,0-11.882-6.498-13.523-12.031l-0.144-0.278
			c-0.46-0.688-1.238-1.065-2.191-1.065c-0.419,0-1.858,0.103-2.804,1.423l-0.228,0.576l0.01,0.345
			c0.186,4.253,1.351,10.771,2.633,13.129l0.278,0.334l0.299,0.205c1.799,1.044,6.817,3.473,14.531,3.473
			c12.183,0,20.368-7.2,20.368-17.916C162.207,127.151,158.362,121.175,150.454,116.288z"/>
		<path fill="#0080BB" d="M235.373,92.01c-0.152-0.916-0.652-1.645-1.486-2.166l-0.601-0.189l-0.323,0.013
			c-3.342,0.197-5.626,0.263-9.052,0.263c-3.443,0-6.639-0.085-10.056-0.267l-0.075-0.004l-0.473,0.119l-0.347,0.193
			c-0.677,0.455-1.144,1.242-1.282,2.167c-0.132,1.001,0.129,1.964,0.708,2.631l0.491,0.6l2.948,0.239
			c2.053,0.163,2.801,0.709,2.913,0.9c0.331,0.582,1.412,3.539,1.412,17.145v10.017c0,9.741-2.706,21.354-15.594,21.354
			c-10.819,0-15.858-6.811-15.858-21.433v-18.83c0-8.849,0.133-8.86,3.547-9.153l2.261-0.191l0.442-0.133l0.278-0.167
			c0.771-0.53,1.173-1.489,1.102-2.631c-0.027-0.45-0.225-1.975-1.634-2.697l-0.506-0.127l-0.256,0.005
			c-4.441,0.195-7.225,0.264-10.64,0.264c-3.225,0-6.179-0.072-10.9-0.267l-0.06-0.002l-0.388,0.077l-0.294,0.125
			c-1.27,0.644-1.466,2.168-1.496,2.624c-0.07,1.192,0.367,2.136,1.261,2.727l0.263,0.178l2.656,0.217
			c3.404,0.292,3.537,0.304,3.537,9.152v20.577c0,10.768,2.367,17.748,7.442,21.964c4.059,3.474,9.948,5.234,17.503,5.234
			c7.169,0,14.064-2.665,17.994-6.954c4.436-4.749,6.591-11.975,6.591-22.088v-9.841c0-3.594,0-14.531,1.059-17.028
			c0.13-0.286,1.096-0.878,2.839-1.018l2.864-0.239l0.488-0.593C235.251,94.054,235.527,92.995,235.373,92.01z"/>
	</g>
</g>
</svg>
