<?xml version="1.0" encoding="utf-8"?>
<!-- Generator: Adobe Illustrator 25.4.2, SVG Export Plug-In . SVG Version: 6.00 Build 0)  -->
<svg version="1.1" id="Layer_1" xmlns="http://www.w3.org/2000/svg" xmlns:xlink="http://www.w3.org/1999/xlink" x="0px" y="0px"
	 viewBox="0 0 680.315 226.772" enable-background="new 0 0 680.315 226.772" xml:space="preserve">
<g>
	<g>
		<path fill="#0080BB" d="M300.695,87.623l-1.099,0.131l-0.169,0.069l-0.079,0.081c-0.372,0.374-0.318,0.94-0.291,1.105
			c0.062,0.379,0.25,0.67,0.574,0.834l0.131,0.033l0.081-0.004c2.006-0.077,3.418-0.122,5.122-0.122
			c1.637,0,3.035,0.045,5.037,0.122l0.06,0.002l0.137-0.021l0.077-0.04c0.453-0.227,0.522-0.815,0.533-0.992
			c0.025-0.443-0.118-0.803-0.393-0.988l-0.062-0.04l-1.202-0.169c-1.887-0.227-2.001-0.239-2.001-4.633V68.464
			c0-4.333,0.075-4.506,1.979-4.668l1.08-0.087l0.131-0.04l0.071-0.046c0.281-0.185,0.424-0.545,0.395-0.992
			c-0.033-0.47-0.233-0.841-0.593-1.019l-0.133-0.033l-0.081,0.004c-1.897,0.075-3.329,0.121-5.037,0.121
			c-1.764,0-3.16-0.044-5.18-0.123l-0.135,0.021l-0.077,0.039c-0.449,0.225-0.52,0.809-0.533,0.984
			c-0.027,0.449,0.114,0.811,0.429,1.023l0.075,0.056l1.169,0.092c1.906,0.162,1.98,0.335,1.98,4.668V82.99
			C302.691,87.384,302.58,87.398,300.695,87.623z"/>
		<path fill="#0080BB" d="M328.612,73.992l-3.266-2.045c-1.198-0.741-3.208-2.318-3.208-4.542c0-1.485,0.56-3.974,4.304-3.974
			c3.416,0,4.448,2.124,5.037,4.271l0.064,0.116l0.019,0.021c0.179,0.218,0.464,0.337,0.805,0.337c0.383,0,0.872-0.154,1.146-0.56
			l0.052-0.152v-0.098c0-1.837-0.404-4.202-0.768-5.174l-0.135-0.364h-0.385c-0.271,0-0.795-0.075-1.284-0.225
			c-0.986-0.264-2.54-0.549-3.94-0.549c-5.313,0-8.881,3.046-8.881,7.575c0,3.645,2.532,6.083,4.658,7.485l3.88,2.534
			c2.717,1.748,3.092,3.551,3.092,5.242c0,2.06-1.406,4.138-4.546,4.138c-3.98,0-5.723-3.089-6.503-5.729l-0.052-0.104
			c-0.169-0.254-0.464-0.391-0.826-0.391c-0.329,0-0.805,0.131-1.115,0.564l-0.064,0.167l0.004,0.116
			c0.083,1.912,0.612,4.931,1.198,6.008l0.1,0.114l0.081,0.048c0.822,0.476,3.112,1.583,6.647,1.583
			c5.532,0,9.249-3.254,9.249-8.103C333.975,78.939,332.221,76.222,328.612,73.992z"/>
		<path fill="#0080BB" d="M366.322,61.102l-0.054-0.108c-0.212-0.427-0.747-0.474-0.967-0.474c-0.123,0-0.302,0.013-0.551,0.114
			l-0.139,0.11l-0.056,0.094c-0.445,0.768-0.499,0.867-2.702,0.867H345c-1.864,0-2.463-0.112-2.605-0.876l-0.071-0.15l-0.067-0.073
			c-0.162-0.162-0.404-0.243-0.736-0.243c-0.148,0-0.512,0.017-0.828,0.225l-0.135,0.173l-0.025,0.141
			c-0.279,1.604-0.876,4.163-1.558,6.081l-0.002,0.218l0.062,0.125c0.2,0.406,0.707,0.689,1.227,0.689
			c0.254,0,0.485-0.073,0.711-0.239l0.098-0.116l0.037-0.081c0.404-0.918,0.784-1.785,1.7-2.625
			c0.843-0.772,2.923-0.872,4.641-0.872h2.245c0.283,0,0.576,0,0.626,0.025c0.042,0.071,0.042,0.402,0.042,0.726v18.239
			c0,4.369-0.229,4.39-2.018,4.546l-1.546,0.139l-0.141,0.046l-0.031,0.021c-0.322,0.2-0.499,0.589-0.476,1.042
			c0.021,0.443,0.216,0.795,0.578,0.976l0.131,0.031l0.077-0.002c2.49-0.075,3.98-0.122,5.655-0.122
			c1.589,0,2.871,0.037,5.328,0.122l0.054,0.002l0.137-0.021l0.075-0.037c0.454-0.227,0.524-0.818,0.533-0.992
			c0.029-0.445-0.114-0.805-0.393-0.992l-0.064-0.042l-1.502-0.171c-1.829-0.156-1.939-0.166-1.939-4.546V64.755
			c0-0.233,0-0.51,0.017-0.653c0.145-0.019,0.418-0.019,0.61-0.019h2.896c2.132,0,3.574,0.297,4.404,0.913
			c0.245,0.177,0.601,0.967,0.803,2.659l0.056,0.152l0.065,0.077c0.198,0.239,0.535,0.372,0.926,0.372
			c0.48,0,0.884-0.214,1.09-0.622l0.033-0.15l-0.008-0.094c-0.115-1.157,0.166-4.398,0.62-6.091L366.322,61.102z"/>
		<path fill="#0080BB" d="M380.965,63.796l1.08-0.087l0.131-0.04l0.073-0.046c0.398-0.268,0.404-0.786,0.391-0.994
			c-0.012-0.175-0.081-0.761-0.587-1.017l-0.133-0.033l-0.083,0.004c-1.899,0.075-3.333,0.121-5.037,0.121
			c-1.766,0-3.162-0.044-5.18-0.123l-0.135,0.021l-0.077,0.037c-0.302,0.15-0.503,0.522-0.535,0.992
			c-0.029,0.449,0.115,0.807,0.429,1.017l0.073,0.056l1.171,0.092c1.906,0.162,1.981,0.335,1.981,4.668V82.99
			c0,4.394-0.114,4.408-1.997,4.633l-1.102,0.131l-0.169,0.069l-0.081,0.081c-0.374,0.376-0.314,0.942-0.289,1.103
			c0.062,0.381,0.25,0.674,0.572,0.834l0.135,0.035l0.083-0.004c2.003-0.077,3.414-0.122,5.12-0.122
			c1.637,0,3.033,0.045,5.039,0.122l0.058,0.002l0.135-0.021l0.075-0.037c0.454-0.227,0.524-0.818,0.533-0.992
			c0.029-0.445-0.114-0.805-0.391-0.992l-0.064-0.04l-1.2-0.169c-1.885-0.225-1.997-0.239-1.997-4.633V68.464
			C378.989,64.131,379.062,63.958,380.965,63.796z"/>
		<path fill="#0080BB" d="M418.752,63.792l0.645-0.091l0.166-0.069l0.077-0.079c0.25-0.252,0.372-0.639,0.325-1.032
			c-0.04-0.37-0.225-0.68-0.566-0.89l-0.164-0.054l-0.106,0.006c-1.327,0.077-2.384,0.121-4.169,0.121
			c-1.46,0-2.804-0.037-4.837-0.123l-0.112,0.011l-0.066,0.025c-0.316,0.119-0.541,0.414-0.608,0.803
			c-0.062,0.341,0,0.849,0.41,1.204l0.077,0.069l0.863,0.098c1.583,0.198,2.035,0.42,2.13,0.562
			c0.218,0.345,0.728,1.837,0.728,8.151c0,0,0,9.125-0.002,9.318c-1.342-1.409-2.761-3.004-4.508-4.958l-5.459-6.123
			c-4.04-4.525-6.353-7.487-6.87-8.804l-0.16-0.418l-0.445,0.069c-0.47,0.073-1.122,0.116-1.791,0.116c-0.712,0-2.877,0-4.633-0.125
			l-0.146,0.023l-0.081,0.039c-0.291,0.144-0.485,0.426-0.545,0.797c-0.066,0.414,0.056,0.853,0.381,1.175l0.079,0.079l0.878,0.1
			c1.019,0.127,1.8,0.418,2.188,0.801c0.678,0.743,0.751,1.382,0.751,2.565v12.166c0.002,1.958,0.012,6.539-0.481,7.804
			c-0.037,0.079-0.239,0.347-1.352,0.493l-1.181,0.133l-0.171,0.069l-0.081,0.081c-0.231,0.231-0.349,0.593-0.316,0.967
			c0.029,0.381,0.202,0.709,0.531,0.942l0.177,0.067l0.116-0.006c1.396-0.079,2.484-0.123,4.211-0.123
			c1.412,0,2.788,0.037,4.831,0.125l0.173-0.042l0.092-0.064c0.25-0.175,0.414-0.453,0.46-0.776
			c0.058-0.364-0.037-0.738-0.318-1.115l-0.085-0.112l-1.517-0.148c-1.132-0.093-1.565-0.352-1.644-0.495
			c-0.152-0.273-0.661-1.673-0.661-8.172v-8.894c0-0.468,0.008-1.007,0.035-1.483c0.643,0.736,1.515,1.766,2.311,2.707
			c0.672,0.793,1.296,1.533,1.7,1.997l9.466,10.775c3.145,3.576,4.646,5.346,5.189,6.116l0.166,0.231h0.287
			c0.633,0,1.134-0.318,1.317-0.872l0.019-0.123l-0.008-0.073c-0.054-0.47-0.12-2.081-0.12-7.075l-0.002-10.35
			c-0.006-1.901-0.013-6.353,0.541-7.537C416.872,64.366,417.206,64.037,418.752,63.792z"/>
		<path fill="#0080BB" d="M442.001,74.539c0,0,3.027-5.243,3.249-5.63c1.569-2.74,2.703-4.718,4.325-4.995l1.205-0.216l0.135-0.058
			l0.065-0.06c0.268-0.229,0.41-0.597,0.383-0.988c-0.031-0.391-0.229-0.738-0.599-0.965l-0.158-0.05l-0.102,0.006
			c-1.425,0.085-2.549,0.121-3.763,0.121s-2.376-0.037-3.942-0.125l-0.142,0.021l-0.083,0.04c-0.297,0.148-0.503,0.441-0.562,0.809
			c-0.067,0.412,0.06,0.826,0.397,1.161l0.081,0.081l0.918,0.1c0.591,0.075,0.986,0.198,1.176,0.266
			c-0.287,0.784-1.692,3.395-2.326,4.567l-0.216,0.399c-0.913,1.772-1.979,3.697-3.331,6.027c-0.986-1.814-1.956-3.79-2.921-5.752
			c-0.401-0.818-0.799-1.631-1.202-2.428c-0.314-0.637-1.059-2.345-1.186-2.813c0.114-0.052,0.426-0.154,1.221-0.266l0.607-0.092
			l0.16-0.069l0.075-0.075c0.279-0.285,0.399-0.768,0.297-1.203c-0.085-0.362-0.324-0.637-0.662-0.751l-0.118-0.023l-0.077,0.006
			c-0.988,0.079-2.442,0.121-4.321,0.121c-1.927,0-3.377-0.039-4.768-0.125l-0.158,0.029l-0.085,0.046
			c-0.262,0.15-0.441,0.424-0.503,0.772c-0.071,0.406,0.031,0.817,0.325,1.155l0.077,0.088l1.344,0.243
			c1.034,0.171,1.506,0.25,2.821,2.806l4.814,9.387c1.128,2.176,1.246,2.625,1.246,4.804v2.08c0,4.427-0.112,4.44-1.945,4.631
			l-1.348,0.131l-0.177,0.069l-0.083,0.083c-0.374,0.376-0.314,0.942-0.289,1.105c0.062,0.379,0.252,0.672,0.574,0.834l0.133,0.033
			l0.081-0.004c2.124-0.077,3.599-0.122,5.322-0.122c1.675,0,3.123,0.046,5.534,0.122l0.056,0.002l0.137-0.021l0.075-0.04
			c0.266-0.133,0.454-0.426,0.516-0.803c0.025-0.166,0.083-0.73-0.354-1.169l-0.085-0.083l-1.756-0.139
			c-1.598-0.117-1.931-0.143-1.931-4.629v-2.12C440.158,77.839,440.225,77.602,442.001,74.539z"/>
		<path fill="#0080BB" d="M563.972,120.706c0,0,3.027-5.243,3.249-5.63c1.569-2.74,2.703-4.718,4.325-4.995l1.206-0.216l0.135-0.058
			l0.065-0.06c0.268-0.229,0.41-0.597,0.383-0.988c-0.031-0.391-0.229-0.738-0.599-0.965l-0.158-0.05l-0.102,0.006
			c-1.425,0.085-2.549,0.121-3.763,0.121s-2.376-0.037-3.942-0.125l-0.142,0.021l-0.083,0.04c-0.297,0.148-0.503,0.441-0.562,0.809
			c-0.067,0.412,0.06,0.826,0.397,1.161l0.081,0.081l0.919,0.1c0.591,0.075,0.986,0.198,1.176,0.266
			c-0.287,0.784-1.692,3.395-2.326,4.567l-0.216,0.399c-0.913,1.772-1.979,3.697-3.331,6.027c-0.986-1.814-1.956-3.79-2.921-5.752
			c-0.401-0.818-0.799-1.631-1.202-2.428c-0.314-0.637-1.059-2.345-1.186-2.813c0.114-0.052,0.426-0.154,1.221-0.266l0.607-0.092
			l0.16-0.069l0.075-0.075c0.279-0.285,0.399-0.768,0.297-1.203c-0.085-0.362-0.324-0.637-0.662-0.751l-0.118-0.023l-0.077,0.006
			c-0.988,0.079-2.442,0.121-4.321,0.121c-1.927,0-3.377-0.039-4.768-0.125l-0.158,0.029l-0.085,0.046
			c-0.262,0.15-0.441,0.424-0.503,0.772c-0.071,0.406,0.031,0.817,0.325,1.155l0.077,0.088l1.344,0.243
			c1.034,0.171,1.506,0.25,2.821,2.806l4.814,9.387c1.128,2.176,1.246,2.625,1.246,4.804v2.08c0,4.427-0.112,4.44-1.945,4.631
			l-1.348,0.131l-0.177,0.069l-0.083,0.083c-0.374,0.376-0.314,0.942-0.289,1.105c0.062,0.379,0.252,0.672,0.574,0.834l0.133,0.033
			l0.081-0.004c2.124-0.077,3.599-0.122,5.323-0.122c1.675,0,3.123,0.046,5.534,0.122l0.056,0.002l0.137-0.021l0.075-0.04
			c0.266-0.133,0.454-0.426,0.516-0.803c0.025-0.166,0.083-0.73-0.354-1.169l-0.085-0.083l-1.756-0.139
			c-1.598-0.117-1.931-0.143-1.931-4.629v-2.12C562.129,124.007,562.196,123.769,563.972,120.706z"/>
		<path fill="#0080BB" d="M455.911,89.843l0.131,0.031l0.081-0.002c2.455-0.083,3.803-0.119,5.53-0.119h3.672
			c3.572,0,7.248,0.041,10.926,0.119l0.36,0.01l0.152-0.323c0.551-1.144,1.589-4.344,1.897-5.885l-0.013-0.166l-0.038-0.09
			c-0.22-0.491-0.753-0.713-1.182-0.713c-0.254,0-0.487,0.067-0.736,0.26l-0.092,0.115l-0.017,0.031
			c-1.069,2.141-2.107,3.41-2.648,3.711c-0.841,0.418-2.047,0.552-4.976,0.552c-3.312,0-4.14-0.372-4.533-0.762
			c-0.52-0.553-0.622-1.891-0.622-3.865v-5.754c0-0.229,0-0.466,0.01-0.503c0.077-0.044,0.418-0.044,0.78-0.044h2.367
			c1.408,0,2.457,0.033,3.006,0.189c0.474,0.118,0.699,0.414,0.859,1.136l0.395,1.666l0.063,0.127l0.025,0.029
			c0.2,0.241,0.547,0.377,0.947,0.377c0.462,0,0.843-0.183,1.053-0.553l0.043-0.135v-0.087c0-0.399-0.029-0.905-0.068-1.531
			c-0.044-0.739-0.096-1.573-0.096-2.386c0-0.851,0.05-1.72,0.098-2.513c0.037-0.628,0.066-1.171,0.066-1.669l-0.029-0.141
			l-0.044-0.077c-0.179-0.312-0.56-0.499-1.024-0.499c-0.401,0-0.745,0.137-0.946,0.377l-0.052,0.062l-0.397,1.86
			c-0.169,0.863-0.347,0.922-0.607,1.011c-0.41,0.135-1.643,0.216-3.293,0.216h-2.367c-0.36,0-0.699,0-0.757-0.025
			c-0.033-0.06-0.033-0.316-0.033-0.564v-8.157c0-0.493,0-0.957,0.06-1.038c0.06-0.04,0.351-0.04,0.608-0.04h2.937
			c1.768,0,3.025,0.039,3.822,0.229c1.731,0.431,2.07,1.496,2.63,3.264l0.104,0.304l0.058,0.102l0.019,0.025
			c0.185,0.223,0.487,0.347,0.847,0.347c0.343,0,0.824-0.123,1.103-0.539l0.069-0.098l-0.071-0.772
			c-0.212-2.349-0.404-4.344-0.632-4.993l-0.169-0.47l-0.489,0.118c-0.424,0.106-3.168,0.106-5.374,0.106h-7.672
			c-1.589,0-2.935-0.033-4.851-0.121l-0.137,0.019l-0.073,0.038c-0.306,0.148-0.507,0.52-0.537,0.992
			c-0.031,0.447,0.114,0.805,0.393,0.992l0.06,0.038l0.836,0.129c1.885,0.225,1.997,0.239,1.997,4.591v14.692
			c0,4.367-0.229,4.388-2.026,4.546l-1.427,0.131l-0.177,0.071l-0.083,0.081c-0.377,0.375-0.318,0.942-0.289,1.107
			C455.401,89.388,455.589,89.681,455.911,89.843z"/>
		<path fill="#0080BB" d="M363.812,107.805l-0.187-0.052l-0.108,0.008c-1.296,0.077-2.338,0.119-4.142,0.119
			c-1.515,0-2.892-0.033-4.818-0.125l-0.123,0.023l-0.065,0.021c-0.339,0.127-0.576,0.435-0.653,0.849
			c-0.087,0.476,0.06,0.944,0.45,1.279l0.075,0.064l0.874,0.102c1.739,0.216,2.022,0.46,2.064,0.526
			c0.171,0.268,0.72,1.645,0.72,8.072c0,0,0,8.954-0.002,9.091c-1.2-1.265-2.463-2.678-4.011-4.407l-5.786-6.491
			c-4.995-5.588-6.462-7.831-6.817-8.731l-0.185-0.462l-0.495,0.079c-0.445,0.073-1.069,0.112-1.76,0.112
			c-0.707,0-2.861,0-4.62-0.127l-0.162,0.031l-0.083,0.04c-0.308,0.154-0.52,0.46-0.582,0.843c-0.067,0.441,0.06,0.89,0.418,1.248
			l0.079,0.075l0.893,0.102c1.005,0.129,1.766,0.412,2.135,0.782c0.657,0.718,0.728,1.342,0.728,2.499v12.097
			c0.004,1.772,0.012,6.483-0.47,7.729c-0.023,0.048-0.195,0.304-1.29,0.451l-1.196,0.137l-0.183,0.081l-0.081,0.081
			c-0.252,0.242-0.376,0.614-0.345,1.011c0.031,0.397,0.21,0.743,0.578,1.013l0.198,0.062l0.118-0.006
			c1.454-0.081,2.551-0.123,4.186-0.123c1.693,0,3.27,0.058,4.822,0.125l0.191-0.056l0.089-0.062
			c0.262-0.181,0.437-0.468,0.493-0.809c0.062-0.379-0.033-0.776-0.264-1.084l-0.166-0.222l-1.546-0.152
			c-1.132-0.087-1.525-0.36-1.575-0.454c-0.152-0.272-0.651-1.65-0.651-8.092v-8.844c0-0.375,0.002-0.853,0.027-1.302
			c0.545,0.63,1.232,1.444,1.895,2.222l0.239,0.285c0.689,0.815,1.331,1.573,1.743,2.041l9.412,10.714
			c3.12,3.545,4.612,5.305,5.151,6.073l0.185,0.265h0.323c0.659,0,1.182-0.335,1.386-0.941l0.012-0.131l-0.01-0.069
			c-0.054-0.464-0.118-2.06-0.118-7.03v-10.242c-0.004-1.895-0.021-6.337,0.522-7.494c0.004-0.004,0.341-0.323,1.823-0.555
			l0.666-0.092l0.183-0.087l0.079-0.081c0.264-0.266,0.389-0.672,0.341-1.078C364.376,108.371,364.184,108.042,363.812,107.805z"/>
		<path fill="#0080BB" d="M379.225,110.095l1.09-0.085l0.15-0.052l0.071-0.048c0.297-0.196,0.447-0.58,0.416-1.046
			c-0.017-0.237-0.108-0.807-0.635-1.075l-0.152-0.035l-0.085,0.004c-2.137,0.089-3.495,0.121-5.007,0.121
			c-1.639,0-2.971-0.033-5.161-0.125l-0.156,0.031l-0.077,0.039c-0.479,0.243-0.553,0.87-0.564,1.055
			c-0.025,0.464,0.127,0.841,0.426,1.038l0.067,0.042l1.238,0.135c1.758,0.148,1.902,0.16,1.902,4.573v14.448
			c0,4.304-0.073,4.313-1.931,4.535l-1.109,0.135l-0.183,0.085l-0.077,0.077c-0.322,0.314-0.372,0.803-0.318,1.15
			c0.063,0.402,0.262,0.716,0.618,0.897l0.15,0.034l0.083-0.002c2.232-0.085,3.497-0.121,5.091-0.121
			c1.539,0,2.788,0.037,5.009,0.121l0.075,0.002l0.15-0.029l0.077-0.039c0.493-0.246,0.558-0.866,0.568-1.049
			c0.027-0.464-0.125-0.843-0.42-1.04l-0.06-0.042l-1.225-0.179c-1.854-0.221-1.927-0.231-1.927-4.535v-14.448
			C377.321,110.255,377.469,110.244,379.225,110.095z"/>
		<path fill="#0080BB" d="M414.941,107.791l-0.169-0.038l-0.093,0.008c-1.275,0.083-2.511,0.119-3.89,0.119
			c-1.646,0-3.127-0.042-4.265-0.127l-0.185,0.038l-0.087,0.054c-0.308,0.177-0.52,0.537-0.558,0.959
			c-0.04,0.424,0.102,0.82,0.458,1.125l0.077,0.067l0.918,0.096c0.803,0.094,1.144,0.231,1.267,0.297
			c-0.017,0.241-0.083,0.601-0.316,1.215c-0.697,1.762-2.63,6.402-3.764,9.068c-0.297,0.682-0.666,1.565-1.078,2.538
			c-0.637,1.512-1.485,3.509-2.234,5.193c-1.821-4.223-3.562-8.584-5.199-12.709c-1.04-2.551-1.721-4.568-1.931-5.322
			c0.146-0.064,0.499-0.173,1.311-0.279l0.699-0.088l0.164-0.069l0.075-0.064c0.283-0.241,0.428-0.639,0.387-1.071
			c-0.046-0.428-0.26-0.788-0.649-1.005l-0.167-0.04l-0.09,0.006c-1.702,0.087-3.116,0.119-4.878,0.119
			c-1.735,0-3.023-0.035-4.269-0.127l-0.189,0.044l-0.09,0.056c-0.32,0.198-0.531,0.568-0.564,0.984
			c-0.027,0.408,0.127,0.797,0.472,1.088l0.079,0.071l0.919,0.096c1.356,0.16,1.851,0.682,2.779,2.946l7.144,17.613
			c0.83,2.045,1.465,3.884,1.843,5.315l0.079,0.308l0.293,0.115c0.275,0.11,0.557,0.165,0.836,0.165
			c0.295,0,0.578-0.081,0.872-0.277l0.133-0.162l0.039-0.114c0.689-2.17,2.634-6.942,4.194-10.531l2.191-4.993
			c1.926-4.356,3.443-7.471,4.502-9.252c0.468-0.751,0.924-1.069,1.627-1.13l1.442-0.09l0.173-0.169
			c0.295-0.3,0.353-0.782,0.308-1.134C415.499,108.307,415.312,108.003,414.941,107.791z"/>
		<path fill="#0080BB" d="M328.345,107.805l-0.183-0.052l-0.112,0.008c-1.552,0.09-2.619,0.119-4.225,0.119
			c-1.594,0-3.096-0.037-4.693-0.125l-0.185,0.048l-0.088,0.06c-0.262,0.171-0.439,0.479-0.495,0.845
			c-0.054,0.399,0.048,0.782,0.279,1.046l0.165,0.204l1.273,0.1c0.945,0.077,1.417,0.329,1.538,0.539
			c0.208,0.362,0.689,1.876,0.689,8.093v4.662c0,4.641-1.302,10.171-7.491,10.171c-5.195,0-7.614-3.243-7.614-10.208v-8.765
			c0-4.333,0.141-4.344,1.862-4.492l1.053-0.089l0.152-0.05l0.069-0.048c0.291-0.2,0.441-0.57,0.414-1.019
			c-0.011-0.177-0.083-0.78-0.635-1.063l-0.152-0.035l-0.085,0.006c-2.07,0.088-3.368,0.119-4.964,0.119
			c-1.512,0-2.867-0.031-5.082-0.125l-0.152,0.033l-0.079,0.037c-0.483,0.246-0.558,0.851-0.568,1.028
			c-0.029,0.454,0.127,0.828,0.483,1.063l0.073,0.048l1.175,0.094c1.72,0.148,1.86,0.16,1.86,4.492v9.578
			c0,4.937,1.076,8.132,3.383,10.048c1.847,1.579,4.537,2.38,7.995,2.38c3.273,0,6.418-1.213,8.205-3.164
			c2.022-2.164,3.006-5.474,3.006-10.121v-4.581c0-1.862,0-6.811,0.512-8.02c0.116-0.254,0.674-0.545,1.515-0.612l1.234-0.1
			l0.165-0.204c0.239-0.285,0.347-0.707,0.283-1.099C328.874,108.307,328.691,108.022,328.345,107.805z"/>
		<path fill="#0080BB" d="M543.08,106.701c-0.185,0-0.351,0.029-0.582,0.123l-0.158,0.131l-0.054,0.1
			c-0.437,0.745-0.481,0.824-2.626,0.824h-16.758c-1.928,0-2.395-0.139-2.528-0.838l-0.083-0.167l-0.075-0.073
			c-0.177-0.171-0.431-0.254-0.776-0.254c-0.154,0-0.534,0.017-0.774,0.181l-0.223,0.143l-0.05,0.27
			c-0.283,1.608-0.878,4.154-1.517,5.94l-0.094,0.25l0.125,0.245c0.219,0.422,0.745,0.716,1.286,0.716
			c0.268,0,0.51-0.075,0.763-0.273l0.141-0.193c0.395-0.907,0.764-1.764,1.671-2.592c0.82-0.753,2.873-0.851,4.569-0.851h2.23
			c0.256,0,0.522,0,0.562,0.013c0.037,0.067,0.037,0.372,0.037,0.668v18.133c0,4.277-0.221,4.298-1.947,4.448l-1.535,0.141
			l-0.202,0.077c-0.341,0.214-0.528,0.624-0.507,1.096c0.01,0.175,0.075,0.762,0.624,1.036l0.075,0.039l0.389-0.013
			c2.453-0.075,3.805-0.115,5.388-0.115c1.606,0,2.989,0.044,5.29,0.123l0.075,0.002l0.154-0.029l0.077-0.042
			c0.331-0.168,0.543-0.566,0.566-1.061c0.027-0.462-0.131-0.838-0.433-1.03l-0.064-0.041l-1.519-0.181
			c-1.756-0.148-1.86-0.158-1.86-4.448v-18.193c0-0.187,0-0.449,0.014-0.607c0.154-0.015,0.402-0.015,0.541-0.015h2.877
			c2.109,0,3.528,0.293,4.34,0.893c0.187,0.139,0.558,0.828,0.776,2.621l0.065,0.167l0.064,0.073
			c0.208,0.248,0.572,0.395,0.972,0.395c0.51,0,0.942-0.231,1.153-0.674l0.035-0.171l-0.008-0.094
			c-0.116-1.136,0.16-4.342,0.589-5.942l0.064-0.233l-0.11-0.218C543.873,106.75,543.311,106.701,543.08,106.701z"/>
		<path fill="#0080BB" d="M440.934,129.505c-0.233-0.514-0.79-0.743-1.238-0.743c-0.262,0-0.505,0.073-0.768,0.268l-0.135,0.173
			c-1.211,2.425-2.21,3.441-2.598,3.655c-0.828,0.414-2.024,0.547-4.916,0.547c-3.275,0-4.094-0.379-4.46-0.743
			c-0.501-0.526-0.601-1.839-0.601-3.79v-5.721c0-0.193,0-0.412-0.004-0.437c0.071-0.036,0.387-0.036,0.72-0.036h2.357
			c1.388,0,2.424,0.031,2.971,0.185c0.439,0.11,0.647,0.391,0.803,1.076l0.387,1.654l0.1,0.181c0.212,0.26,0.578,0.41,1.005,0.41
			c0.483,0,0.884-0.198,1.115-0.605l0.04-0.15v-0.087c0-0.401-0.031-0.934-0.071-1.558c-0.042-0.722-0.09-1.542-0.09-2.334
			c0-0.83,0.048-1.672,0.092-2.473c0.038-0.626,0.069-1.188,0.069-1.702l-0.036-0.156l-0.042-0.077
			c-0.194-0.335-0.599-0.539-1.082-0.539c-0.41,0-0.782,0.15-0.996,0.4l-0.052,0.066l-0.402,1.877
			c-0.168,0.822-0.324,0.874-0.557,0.951c-0.414,0.137-1.629,0.217-3.254,0.217h-2.357c-0.329,0-0.643,0-0.689-0.013
			c-0.027-0.058-0.027-0.283-0.027-0.505v-8.112c0-0.458,0-0.892,0.05-0.967c0.056-0.035,0.318-0.035,0.547-0.035h2.919
			c1.473,0,2.95,0.027,3.788,0.221c1.685,0.428,2.016,1.473,2.565,3.214l0.096,0.283l0.071,0.133l0.021,0.025
			c0.2,0.239,0.518,0.372,0.897,0.372c0.374,0,0.861-0.133,1.173-0.589l0.066-0.098l-0.085-0.913
			c-0.204-2.278-0.393-4.215-0.618-4.856l-0.191-0.539l-0.547,0.142c-0.416,0.102-3.139,0.102-5.328,0.102h-7.625
			c-1.639,0-3.019-0.037-4.841-0.125l-0.15,0.031l-0.079,0.039c-0.46,0.233-0.549,0.803-0.566,1.04
			c-0.033,0.466,0.119,0.849,0.416,1.046l0.06,0.042l0.865,0.139c1.82,0.221,1.928,0.235,1.928,4.496v14.607
			c0,4.281-0.223,4.302-1.953,4.452l-1.556,0.144l-0.166,0.16c-0.395,0.398-0.335,0.992-0.308,1.167
			c0.071,0.4,0.27,0.703,0.614,0.874l0.15,0.036l0.366-0.011c2.197-0.069,3.522-0.112,5.22-0.112h3.649
			c3.429,0,6.98,0.038,10.86,0.121l0.399,0.008l0.171-0.36c0.549-1.132,1.585-4.325,1.901-5.881l-0.019-0.191L440.934,129.505z"/>
		<path fill="#0080BB" d="M473.251,134.363l-0.139-0.029c-0.909-0.066-1.799-0.422-2.442-0.988
			c-2.757-2.314-4.968-5.715-8.028-10.647c-0.062-0.096-0.102-0.169-0.131-0.225c1.485-0.67,5.093-2.757,5.093-7.194
			c0-3.564-2.01-5.355-3.691-6.225c-2.095-1.142-4.754-1.296-7.074-1.296c-3.689,0-6.584,0.104-9.166,0.337l-0.164,0.054
			c-0.329,0.166-0.547,0.52-0.585,0.955c-0.037,0.451,0.145,0.895,0.458,1.123l0.067,0.046l1.523,0.223
			c1.049,0.131,1.24,0.154,1.24,4.134v14.563c0,4.229-0.071,4.236-1.891,4.456l-1.124,0.137l-0.198,0.1l-0.083,0.096
			c-0.304,0.35-0.341,0.845-0.271,1.192c0.075,0.37,0.269,0.651,0.608,0.818l0.152,0.035l0.09-0.002
			c1.849-0.077,3.339-0.121,5.041-0.121c1.658,0,3.015,0.044,4.877,0.123L457.57,136l0.077-0.039c0.302-0.152,0.501-0.483,0.56-0.94
			c0.054-0.462-0.081-0.872-0.422-1.163l-0.073-0.06l-1.03-0.148c-1.825-0.254-1.895-0.262-1.895-4.456v-5.11
			c0-0.094,0-0.21-0.023-0.21h-0.002c0.108-0.06,0.637-0.06,1.308-0.06c1.435,0,1.874,0.304,2.37,1.028
			c0.616,0.895,1.338,2.035,2.033,3.137c0.686,1.092,1.396,2.22,1.947,2.998c2.858,4.069,5.022,5.374,8.906,5.374
			c0.834,0,1.541-0.087,2.035-0.26l0.137-0.081c0.271-0.214,0.408-0.566,0.356-0.911
			C473.808,134.769,473.594,134.494,473.251,134.363z M460.891,120.424c-1.092,0.822-2.609,0.928-3.809,0.928
			c-1.386,0-2.006-0.04-2.284-0.073c-0.012-0.227-0.012-0.585-0.012-0.845v-9.495c0-0.676,0-0.676,2.012-0.676
			c4.333,0,5.869,3.033,5.869,5.627C462.669,118.005,462.085,119.49,460.891,120.424z"/>
		<path fill="#0080BB" d="M510.005,110.095l1.1-0.096l0.21-0.085c0.293-0.196,0.449-0.576,0.422-1.042
			c-0.011-0.183-0.083-0.801-0.633-1.082l-0.154-0.035l-0.085,0.004c-2.139,0.089-3.497,0.121-5.005,0.121
			c-1.644,0-2.977-0.033-5.162-0.125l-0.154,0.031l-0.075,0.039c-0.478,0.239-0.557,0.859-0.57,1.048
			c-0.027,0.468,0.125,0.847,0.483,1.082l0.073,0.048l1.177,0.092c1.756,0.148,1.898,0.16,1.898,4.573v14.448
			c0,4.304-0.071,4.313-1.927,4.535l-1.111,0.135l-0.187,0.085l-0.081,0.079c-0.318,0.318-0.366,0.809-0.306,1.157
			c0.064,0.401,0.266,0.712,0.618,0.888l0.15,0.034l0.085-0.002c2.222-0.085,3.481-0.121,5.089-0.121
			c1.529,0,2.779,0.037,5.007,0.121l0.075,0.002l0.154-0.029l0.077-0.039c0.323-0.165,0.535-0.558,0.564-1.061
			c0.021-0.458-0.131-0.834-0.42-1.028l-0.063-0.042l-1.225-0.179c-1.852-0.221-1.926-0.231-1.926-4.535v-14.448
			C508.103,110.255,508.247,110.244,510.005,110.095z"/>
		<path fill="#0080BB" d="M488.049,120.109l-3.246-2.03c-1.177-0.734-3.154-2.289-3.154-4.463c0-1.77,0.728-3.882,4.205-3.882
			c3.349,0,4.365,2.085,4.945,4.192l0.098,0.173c0.193,0.227,0.495,0.353,0.851,0.353c0.397,0,0.909-0.162,1.205-0.599l0.058-0.175
			v-0.102c0-1.852-0.397-4.169-0.77-5.164l-0.148-0.408h-0.435c-0.27,0-0.784-0.075-1.259-0.221
			c-0.986-0.266-2.534-0.549-3.936-0.549c-5.323,0-8.898,3.054-8.898,7.602c0,3.649,2.534,6.092,4.66,7.496l3.861,2.523
			c2.673,1.72,3.041,3.493,3.041,5.157c0,2.01-1.375,4.038-4.45,4.038c-3.907,0-5.629-3.042-6.395-5.634l-0.046-0.102l-0.017-0.027
			c-0.179-0.27-0.503-0.422-0.884-0.422c-0.341,0-0.838,0.137-1.179,0.614l-0.058,0.191l0.004,0.11
			c0.081,1.899,0.608,4.912,1.207,6.023l0.121,0.125l0.081,0.048c1.032,0.589,3.27,1.581,6.639,1.581c5.538,0,9.26-3.266,9.26-8.128
			C493.41,125.06,491.657,122.337,488.049,120.109z"/>
	</g>
	<g>
		<path fill="#101820" d="M304.759,150.972l0.675-0.052l0.048-0.032c0.13-0.088,0.197-0.266,0.183-0.489
			c-0.005-0.09-0.04-0.393-0.256-0.504l-0.051-0.026l-0.058,0.003c-1.218,0.05-2.064,0.077-3.048,0.077
			c-1.039,0-1.86-0.026-3.101-0.077l-0.058-0.003l-0.052,0.027c-0.216,0.114-0.248,0.418-0.253,0.51
			c-0.012,0.22,0.056,0.396,0.185,0.483l0.048,0.032l0.672,0.052c1.228,0.105,1.301,0.27,1.301,2.94v8.782
			c0,2.634-0.061,2.77-1.31,2.916l-0.69,0.085l-0.053,0.052c-0.15,0.148-0.173,0.389-0.144,0.567
			c0.031,0.191,0.122,0.336,0.248,0.399l0.05,0.024l0.055-0.002c1.243-0.048,2.064-0.072,3.102-0.072
			c0.982,0,1.829,0.025,3.049,0.072l0.054,0.002l0.049-0.023c0.217-0.104,0.255-0.405,0.261-0.494
			c0.016-0.229-0.051-0.411-0.184-0.499l-0.713-0.111c-1.252-0.146-1.313-0.283-1.313-2.916v-8.782
			C303.454,151.242,303.527,151.077,304.759,150.972z"/>
		<path fill="#101820" d="M336.862,157.355l-1.972-1.235c-0.745-0.464-1.994-1.45-1.994-2.848c0-0.942,0.353-2.522,2.715-2.522
			c2.157,0,2.813,1.405,3.144,2.629l0.044,0.085c0.093,0.11,0.251,0.165,0.436,0.155c0.172-0.009,0.413-0.08,0.529-0.25l0.038-0.055
			v-0.067c0-1.012-0.209-2.425-0.457-3.086l-0.053-0.142h-0.152c-0.161,0-0.482-0.044-0.811-0.141
			c-0.776-0.206-1.654-0.329-2.348-0.329c-3.14,0-5.25,1.794-5.25,4.462c0,2.147,1.5,3.592,2.76,4.426l2.345,1.533
			c1.777,1.138,1.926,2.284,1.926,3.268c0,1.206-0.751,2.616-2.869,2.616c-2.486,0-3.563-1.912-4.028-3.516l-0.031-0.064
			c-0.08-0.115-0.22-0.18-0.393-0.183c-0.158-0.007-0.42,0.062-0.558,0.25l-0.046,0.062l0.003,0.077
			c0.047,1.117,0.367,2.949,0.693,3.55l0.029,0.053l0.052,0.031c0.485,0.283,1.841,0.944,3.957,0.944
			c3.275,0,5.475-1.922,5.475-4.782C340.048,160.29,339.006,158.681,336.862,157.355z"/>
		<path fill="#101820" d="M379.268,149.272l-0.067,0.028l-0.037,0.064c-0.297,0.517-0.387,0.583-1.735,0.583h-10.083
			c-0.014,0-0.026,0-0.039,0c-1.108,0-1.647-0.031-1.751-0.587l-0.012-0.064l-0.045-0.047c-0.171-0.18-0.616-0.114-0.744-0.033
			l-0.081,0.052l-0.016,0.095c-0.17,0.984-0.543,2.552-0.927,3.643l-0.031,0.089l0.043,0.084c0.082,0.159,0.257,0.286,0.458,0.333
			c0.188,0.044,0.372,0.011,0.508-0.089l0.047-0.034l0.023-0.053c0.251-0.568,0.488-1.104,1.055-1.625
			c0.538-0.494,1.762-0.561,2.889-0.561h1.357c0.174,0,0.438,0,0.483,0.035c0.035,0.045,0.035,0.294,0.035,0.534v11.028
			c0,2.647-0.15,2.762-1.328,2.864l-0.887,0.076l-0.095,0.031c-0.156,0.095-0.244,0.289-0.234,0.518
			c0.008,0.176,0.078,0.394,0.251,0.48l0.049,0.024l0.055-0.002c1.571-0.047,2.435-0.073,3.425-0.073c1,0,1.875,0.027,3.219,0.073
			l0.055,0.002l0.049-0.024c0.218-0.108,0.253-0.412,0.259-0.503c0.014-0.225-0.053-0.404-0.184-0.49l-0.889-0.112
			c-1.221-0.103-1.28-0.237-1.28-2.864v-11.064c0-0.225-0.001-0.457,0.029-0.5c0.047-0.033,0.3-0.033,0.468-0.033h1.749
			c1.319,0,2.212,0.189,2.734,0.578c0.106,0.076,0.37,0.389,0.528,1.646l0.008,0.064l0.042,0.05
			c0.138,0.163,0.389,0.197,0.564,0.178c0.206-0.024,0.365-0.123,0.44-0.27l0.028-0.057l-0.006-0.063
			c-0.072-0.707,0.098-2.688,0.362-3.669l0.022-0.082l-0.039-0.076C379.866,149.204,379.446,149.195,379.268,149.272z"/>
		<path fill="#101820" d="M416.196,165.611c-0.912-0.106-1.198-0.347-1.916-2.471l-3.488-10.241
			c-0.336-0.983-0.684-1.998-0.972-2.968c-0.067-0.239-0.284-0.382-0.582-0.382h-0.101l-0.066,0.077
			c-0.277,0.325-0.661,0.719-1.178,0.869l-0.191,0.056l0.038,0.195c0.065,0.333-0.073,0.772-0.405,1.633l-2.519,6.661
			c-0.703,1.877-1.257,3.243-1.662,4.241c-0.195,0.481-0.363,0.894-0.504,1.257c-0.347,0.884-0.875,1.036-1.298,1.071l-0.883,0.08
			l-0.053,0.044c-0.115,0.096-0.175,0.259-0.166,0.458c0.008,0.172,0.072,0.396,0.232,0.507l0.06,0.042l0.54-0.022
			c0.591-0.026,1.259-0.055,1.887-0.055l0.933,0.02c0.657,0.013,1.176,0.022,1.621,0.055l0.058,0.004l0.051-0.025
			c0.166-0.078,0.276-0.25,0.294-0.461c0.02-0.221-0.061-0.424-0.21-0.531l-0.049-0.035l-0.875-0.079
			c-0.515-0.043-0.515-0.135-0.515-0.276c0-0.149,0.069-0.603,0.531-1.98l0.863-2.588c0.131-0.396,0.17-0.446,0.73-0.446h3.725
			c0.654,0,0.662,0.026,0.802,0.466l1.088,3.357c0.143,0.433,0.308,0.965,0.308,1.24c0,0.051-0.167,0.18-0.667,0.227l-0.773,0.08
			l-0.047,0.034c-0.142,0.101-0.218,0.289-0.203,0.505c0.015,0.218,0.119,0.399,0.278,0.483l0.052,0.027l0.472-0.018
			c0.647-0.026,1.453-0.059,2.414-0.059c1.132,0,2.008,0.03,2.974,0.075l0.085,0.003l0.065-0.053
			c0.153-0.126,0.199-0.366,0.192-0.534c-0.008-0.19-0.081-0.344-0.207-0.431L416.196,165.611z M410.255,158.856
			c-0.023,0.016-0.111,0.044-0.449,0.044h-3.031c-0.113,0-0.306,0-0.402-0.015c0.016-0.079,0.064-0.213,0.09-0.288l1.551-4.289
			c0.159-0.43,0.3-0.79,0.405-1.041c0.11,0.292,0.236,0.664,0.351,1.006l1.372,4.147
			C410.224,158.672,410.259,158.823,410.255,158.856z"/>
		<path fill="#101820" d="M457.649,149.865l-0.07,0.004c-0.803,0.05-1.444,0.078-2.524,0.078c-0.872,0-1.686-0.021-2.9-0.078
			l-0.047-0.002l-0.044,0.017c-0.152,0.06-0.259,0.206-0.292,0.4c-0.039,0.228,0.031,0.458,0.178,0.587l0.051,0.045l0.484,0.054
			c0.825,0.104,1.262,0.23,1.373,0.394c0.138,0.219,0.459,1.141,0.459,4.988v5.281c0,0.213,0,0.456-0.01,0.639
			c-0.831-0.864-1.703-1.84-2.781-3.046l-3.438-3.853l-0.042-0.048c-2.432-2.732-3.824-4.52-4.136-5.317l-0.064-0.164l-0.174,0.028
			c-0.294,0.048-0.696,0.075-1.101,0.075c-0.43,0-1.741,0-2.771-0.077l-0.061-0.005l-0.054,0.028
			c-0.139,0.071-0.235,0.215-0.264,0.396c-0.034,0.216,0.029,0.44,0.161,0.573l0.054,0.054l0.492,0.055
			c0.654,0.086,1.14,0.269,1.397,0.521c0.459,0.508,0.482,0.952,0.482,1.635v7.337c0.002,1.194,0.004,3.99-0.303,4.781
			c-0.044,0.099-0.221,0.277-0.907,0.366l-0.742,0.084l-0.054,0.054c-0.115,0.115-0.174,0.3-0.158,0.493
			c0.016,0.195,0.102,0.36,0.236,0.455l0.062,0.044l0.076-0.003c0.861-0.047,1.523-0.073,2.55-0.073c0.968,0,1.852,0.029,2.88,0.073
			l0.076,0.003l0.061-0.045c0.122-0.088,0.203-0.227,0.228-0.391c0.029-0.188-0.019-0.381-0.131-0.531l-0.057-0.078l-0.867-0.085
			c-0.688-0.055-1.011-0.219-1.086-0.359c-0.265-0.471-0.417-2.294-0.417-4.999v-5.378c0-0.363,0.006-0.829,0.046-1.18
			c0.41,0.46,1.069,1.239,1.663,1.941c0.375,0.443,0.718,0.848,0.945,1.11l5.721,6.511c1.895,2.156,2.806,3.23,3.143,3.708
			l0.065,0.093h0.114c0.335,0,0.588-0.157,0.676-0.421l0.015-0.046l-0.006-0.049c-0.034-0.287-0.074-1.264-0.074-4.293l-0.001-6.227
			c-0.004-1.263-0.013-3.889,0.349-4.652c0.032-0.059,0.328-0.259,1.216-0.4l0.417-0.057l0.053-0.053
			c0.124-0.125,0.187-0.327,0.164-0.528c-0.021-0.186-0.114-0.343-0.254-0.431L457.649,149.865z"/>
		<path fill="#101820" d="M491.592,157.398c-0.102-0.018-0.167-0.036-0.211-0.054c1.237-0.61,2.435-1.523,2.435-3.48
			c0-1.488-0.709-2.652-1.992-3.276c-1.242-0.636-2.92-0.717-4.242-0.717c-2.106,0-3.847,0.065-5.323,0.197l-0.079,0.022
			c-0.157,0.079-0.262,0.248-0.281,0.451c-0.02,0.215,0.064,0.421,0.219,0.537l0.049,0.038l0.858,0.082
			c0.893,0.079,1.006,0.323,1.006,2.176v9.374c0,2.663-0.089,2.679-1.174,2.867l-0.513,0.087l-0.049,0.048
			c-0.125,0.123-0.18,0.33-0.146,0.555c0.029,0.195,0.12,0.345,0.248,0.411l0.051,0.026l0.808-0.029
			c0.639-0.025,1.298-0.05,2.08-0.05c0.562,0,1.176,0.023,1.735,0.044c0.47,0.017,0.9,0.033,1.227,0.033
			c4.308,0,6.778-1.824,6.778-5.005C495.075,158.821,492.798,157.624,491.592,157.398z M487.547,157.124
			c-0.388,0.016-0.922,0.037-1.013-0.05c-0.045-0.044-0.045-0.254-0.045-0.424v-5.006c0-0.376,0.063-0.394,0.216-0.442
			c0.193-0.086,0.546-0.131,1.047-0.131c0.811,0,3.457,0.225,3.457,3.114C491.209,156.198,490.183,157.023,487.547,157.124z
			 M488.739,165.535c-0.882,0-1.432-0.189-1.785-0.615c-0.465-0.54-0.465-2.05-0.465-2.546v-3.649c0-0.326,0-0.424,1.214-0.424
			c4.084,0,4.693,2.505,4.693,3.998C492.396,165.115,490.105,165.535,488.739,165.535z"/>
		<path fill="#101820" d="M536.595,149.902l-0.06-0.037l-0.069,0.003c-0.854,0.05-1.517,0.078-2.576,0.078
			c-0.948,0-1.864-0.026-2.799-0.078l-0.073-0.003l-0.061,0.041c-0.121,0.082-0.205,0.23-0.23,0.405
			c-0.027,0.193,0.021,0.379,0.132,0.512l0.059,0.07l0.708,0.054c0.559,0.047,0.937,0.192,1.064,0.407
			c0.164,0.291,0.44,1.327,0.44,4.997v2.84c0,2.894-0.818,6.344-4.714,6.344c-3.27,0-4.792-2.024-4.792-6.37v-5.326
			c0-2.628,0.072-2.791,1.278-2.893l0.649-0.051l0.048-0.032c0.131-0.089,0.201-0.263,0.188-0.477
			c-0.011-0.181-0.085-0.405-0.26-0.495l-0.052-0.026l-0.057,0.003c-1.164,0.05-1.991,0.078-3.022,0.078
			c-1.019,0-1.858-0.027-3.05-0.078l-0.059-0.003l-0.053,0.028c-0.17,0.09-0.242,0.314-0.253,0.493
			c-0.013,0.213,0.053,0.386,0.181,0.475l0.049,0.034l0.674,0.051c1.211,0.102,1.283,0.265,1.283,2.893v5.819
			c0,2.989,0.616,4.836,1.997,5.988c1.091,0.935,2.692,1.409,4.758,1.409c1.948,0,3.814-0.716,4.869-1.868
			c1.203-1.291,1.788-3.269,1.788-6.046v-2.79c0-1.248,0-4.172,0.321-4.937c0.112-0.24,0.526-0.423,1.054-0.468l0.685-0.054
			l0.06-0.073c0.114-0.142,0.168-0.355,0.137-0.545C536.809,150.116,536.723,149.983,536.595,149.902z"/>
		<path fill="#101820" d="M573.083,162.724c-0.183-0.086-0.527-0.136-0.72,0.024l-0.063,0.089c-0.534,1.361-1.162,2.109-1.532,2.331
			c-0.352,0.199-0.875,0.294-2.903,0.294c-2.026,0-2.357-0.329-2.529-0.499c-0.39-0.415-0.459-1.02-0.459-2.517v-8.581
			c0-2.623,0.073-2.786,1.307-2.891l0.645-0.053l0.046-0.032c0.132-0.087,0.201-0.265,0.187-0.488
			c-0.005-0.091-0.039-0.396-0.258-0.506l-0.051-0.026l-0.057,0.003c-1.154,0.048-2.019,0.076-3.022,0.076
			c-0.984,0-1.816-0.025-3.198-0.076l-0.058-0.002l-0.051,0.026c-0.215,0.111-0.249,0.417-0.254,0.508
			c-0.013,0.221,0.054,0.398,0.183,0.485l0.048,0.032l0.67,0.053c1.34,0.108,1.406,0.242,1.406,2.891v8.881
			c0,2.605-0.06,2.739-1.281,2.865l-0.82,0.081l-0.055,0.056c-0.124,0.125-0.177,0.335-0.141,0.562
			c0.031,0.193,0.12,0.341,0.246,0.406l0.051,0.026l0.057-0.002c1.411-0.052,2.187-0.076,3.199-0.076h2.267
			c2.696,0,4.931,0.027,6.132,0.076l0.138,0.005l0.064-0.122c0.347-0.663,1.062-3.208,1.062-3.559
			C573.337,162.997,573.312,162.832,573.083,162.724z"/>
	</g>
	<rect x="276.178" y="53.219" fill="#0080BB" width="1.554" height="120.334"/>
	<g>
		<path fill="#0080BB" d="M132.207,146.091l-0.229-0.156l-2.711-0.385c-3.779-0.45-3.852-0.459-3.852-9.45v-31.212
			c0-9.211,0.143-9.223,3.79-9.534l2.32-0.183l0.39-0.106l0.281-0.165c0.754-0.494,1.146-1.434,1.074-2.583
			c-0.086-1.225-0.638-2.147-1.554-2.599l-0.456-0.126l-0.242,0.014c-4.065,0.163-7.137,0.257-10.808,0.257
			c-3.752,0-6.684-0.089-11.204-0.257l-0.293,0.046l-0.307,0.127c-1.16,0.58-1.38,1.964-1.421,2.535
			c-0.075,1.156,0.33,2.093,1.121,2.626l0.275,0.206l2.655,0.208c3.654,0.312,3.796,0.323,3.796,9.534V136.1
			c0,8.995-0.072,9.003-3.853,9.451l-2.358,0.287l-0.493,0.178l-0.341,0.285c-1.012,1.017-0.809,2.524-0.759,2.811
			c0.162,0.998,0.68,1.743,1.5,2.154l0.457,0.127l0.244-0.011c4.311-0.167,7.337-0.258,10.981-0.258c3.5,0,6.5,0.091,10.814,0.258
			l0.511-0.048l0.312-0.129c1.163-0.588,1.382-1.977,1.423-2.554C133.335,147.519,132.946,146.585,132.207,146.091z"/>
		<path fill="#0080BB" d="M170.217,116.339l-7.019-4.392c-2.485-1.539-6.655-4.799-6.655-9.339c0-3.667,1.517-8.038,8.743-8.038
			c6.967,0,9.089,4.234,10.343,8.81l0.179,0.354l0.094,0.125c0.479,0.585,1.232,0.907,2.12,0.907c0.928,0,2.17-0.375,2.873-1.428
			l0.172-0.438l0.029-0.378c0-3.99-0.887-9.151-1.684-11.288l-0.409-1.107h-1.18c-0.542,0-1.614-0.159-2.63-0.468
			c-2.153-0.577-5.541-1.194-8.594-1.194c-11.71,0-19.579,6.741-19.579,16.773c0,8.053,5.563,13.416,10.232,16.499l8.343,5.446
			c5.633,3.624,6.41,7.354,6.41,10.844c0,4.175-2.865,8.388-9.265,8.388c-8.236,0-11.882-6.498-13.523-12.031l-0.144-0.278
			c-0.46-0.688-1.238-1.065-2.191-1.065c-0.419,0-1.858,0.103-2.804,1.423l-0.228,0.576l0.01,0.345
			c0.186,4.253,1.351,10.771,2.633,13.129l0.278,0.334l0.299,0.205c1.799,1.044,6.817,3.473,14.531,3.473
			c12.183,0,20.368-7.2,20.368-17.916C181.971,127.202,178.125,121.226,170.217,116.339z"/>
		<path fill="#0080BB" d="M255.136,92.061c-0.152-0.916-0.652-1.645-1.486-2.166l-0.601-0.189l-0.323,0.013
			c-3.342,0.197-5.626,0.263-9.052,0.263c-3.443,0-6.639-0.085-10.056-0.267l-0.075-0.004l-0.473,0.119l-0.347,0.193
			c-0.677,0.455-1.144,1.242-1.282,2.167c-0.132,1.001,0.129,1.964,0.708,2.631l0.491,0.6l2.948,0.239
			c2.053,0.163,2.801,0.709,2.913,0.9c0.331,0.582,1.412,3.539,1.412,17.145v10.017c0,9.741-2.706,21.354-15.594,21.354
			c-10.819,0-15.858-6.811-15.858-21.433v-18.83c0-8.849,0.133-8.86,3.547-9.153l2.261-0.191l0.442-0.133l0.278-0.167
			c0.771-0.53,1.173-1.489,1.102-2.631c-0.027-0.45-0.225-1.975-1.634-2.697l-0.506-0.127l-0.256,0.005
			c-4.441,0.195-7.225,0.264-10.64,0.264c-3.225,0-6.179-0.072-10.9-0.267l-0.06-0.002l-0.388,0.077l-0.294,0.125
			c-1.27,0.644-1.466,2.168-1.496,2.624c-0.07,1.192,0.367,2.136,1.261,2.727l0.263,0.178l2.656,0.217
			c3.404,0.292,3.537,0.304,3.537,9.152v20.577c0,10.768,2.367,17.748,7.442,21.964c4.059,3.474,9.948,5.234,17.503,5.234
			c7.169,0,14.064-2.665,17.994-6.954c4.436-4.749,6.591-11.975,6.591-22.088v-9.841c0-3.594,0-14.531,1.059-17.028
			c0.13-0.286,1.096-0.878,2.839-1.018l2.864-0.239l0.488-0.593C255.014,94.105,255.29,93.045,255.136,92.061z"/>
	</g>
</g>
</svg>
