<?xml version="1.0" encoding="utf-8"?>
<!-- Generator: Adobe Illustrator 26.0.3, SVG Export Plug-In . SVG Version: 6.00 Build 0)  -->
<svg version="1.1" id="Layer_1" xmlns="http://www.w3.org/2000/svg" xmlns:xlink="http://www.w3.org/1999/xlink" x="0px" y="0px"
	 viewBox="0 0 680.31 226.77" style="enable-background:new 0 0 680.31 226.77;" xml:space="preserve">
<style type="text/css">
	.st0{fill:#0080BB;}
	.st1{fill:#FFFFFF;}
</style>
<g>
	<rect x="0" class="st0" width="680.31" height="226.77"/>
	<g>
		<g>
			<path class="st1" d="M300.69,87.62l-1.1,0.13l-0.17,0.07l-0.08,0.08c-0.37,0.37-0.32,0.94-0.29,1.11
				c0.06,0.38,0.25,0.67,0.57,0.83l0.13,0.03l0.08,0c2.01-0.08,3.42-0.12,5.12-0.12c1.64,0,3.03,0.04,5.04,0.12l0.06,0l0.14-0.02
				l0.08-0.04c0.45-0.23,0.52-0.81,0.53-0.99c0.03-0.44-0.12-0.8-0.39-0.99l-0.06-0.04l-1.2-0.17c-1.89-0.23-2-0.24-2-4.63V68.46
				c0-4.33,0.08-4.51,1.98-4.67l1.08-0.09l0.13-0.04l0.07-0.05c0.28-0.18,0.42-0.54,0.39-0.99c-0.03-0.47-0.23-0.84-0.59-1.02
				l-0.13-0.03l-0.08,0c-1.9,0.08-3.33,0.12-5.04,0.12c-1.76,0-3.16-0.04-5.18-0.12l-0.13,0.02l-0.08,0.04
				c-0.45,0.23-0.52,0.81-0.53,0.98c-0.03,0.45,0.11,0.81,0.43,1.02l0.08,0.06l1.17,0.09c1.91,0.16,1.98,0.34,1.98,4.67v14.53
				C302.69,87.38,302.58,87.4,300.69,87.62z"/>
			<path class="st1" d="M328.61,73.99l-3.27-2.05c-1.2-0.74-3.21-2.32-3.21-4.54c0-1.48,0.56-3.97,4.3-3.97
				c3.42,0,4.45,2.12,5.04,4.27l0.06,0.12l0.02,0.02c0.18,0.22,0.46,0.34,0.8,0.34c0.38,0,0.87-0.15,1.15-0.56l0.05-0.15v-0.1
				c0-1.84-0.4-4.2-0.77-5.17l-0.13-0.36h-0.39c-0.27,0-0.8-0.07-1.28-0.23c-0.99-0.26-2.54-0.55-3.94-0.55
				c-5.31,0-8.88,3.05-8.88,7.58c0,3.65,2.53,6.08,4.66,7.48l3.88,2.53c2.72,1.75,3.09,3.55,3.09,5.24c0,2.06-1.41,4.14-4.55,4.14
				c-3.98,0-5.72-3.09-6.5-5.73l-0.05-0.1c-0.17-0.25-0.46-0.39-0.83-0.39c-0.33,0-0.8,0.13-1.11,0.56l-0.06,0.17l0,0.12
				c0.08,1.91,0.61,4.93,1.2,6.01l0.1,0.11l0.08,0.05c0.82,0.48,3.11,1.58,6.65,1.58c5.53,0,9.25-3.25,9.25-8.1
				C333.98,78.94,332.22,76.22,328.61,73.99z"/>
			<path class="st1" d="M366.32,61.1l-0.05-0.11c-0.21-0.43-0.75-0.47-0.97-0.47c-0.12,0-0.3,0.01-0.55,0.11l-0.14,0.11l-0.06,0.09
				c-0.44,0.77-0.5,0.87-2.7,0.87H345c-1.86,0-2.46-0.11-2.61-0.88l-0.07-0.15l-0.07-0.07c-0.16-0.16-0.4-0.24-0.74-0.24
				c-0.15,0-0.51,0.02-0.83,0.23l-0.13,0.17l-0.02,0.14c-0.28,1.6-0.88,4.16-1.56,6.08l0,0.22l0.06,0.13
				c0.2,0.41,0.71,0.69,1.23,0.69c0.25,0,0.49-0.07,0.71-0.24l0.1-0.12l0.04-0.08c0.4-0.92,0.78-1.79,1.7-2.62
				c0.84-0.77,2.92-0.87,4.64-0.87h2.25c0.28,0,0.58,0,0.63,0.03c0.04,0.07,0.04,0.4,0.04,0.73v18.24c0,4.37-0.23,4.39-2.02,4.55
				l-1.55,0.14l-0.14,0.05l-0.03,0.02c-0.32,0.2-0.5,0.59-0.48,1.04c0.02,0.44,0.22,0.8,0.58,0.98l0.13,0.03l0.08,0
				c2.49-0.08,3.98-0.12,5.66-0.12c1.59,0,2.87,0.04,5.33,0.12l0.05,0l0.14-0.02l0.08-0.04c0.45-0.23,0.52-0.82,0.53-0.99
				c0.03-0.44-0.11-0.8-0.39-0.99l-0.06-0.04l-1.5-0.17c-1.83-0.16-1.94-0.17-1.94-4.55V64.75c0-0.23,0-0.51,0.02-0.65
				c0.14-0.02,0.42-0.02,0.61-0.02h2.9c2.13,0,3.57,0.3,4.4,0.91c0.24,0.18,0.6,0.97,0.8,2.66l0.06,0.15l0.07,0.08
				c0.2,0.24,0.54,0.37,0.93,0.37c0.48,0,0.88-0.21,1.09-0.62l0.03-0.15l-0.01-0.09c-0.12-1.16,0.17-4.4,0.62-6.09L366.32,61.1z"/>
			<path class="st1" d="M380.96,63.8l1.08-0.09l0.13-0.04l0.07-0.05c0.4-0.27,0.4-0.79,0.39-0.99c-0.01-0.18-0.08-0.76-0.59-1.02
				l-0.13-0.03l-0.08,0c-1.9,0.08-3.33,0.12-5.04,0.12c-1.77,0-3.16-0.04-5.18-0.12l-0.13,0.02l-0.08,0.04
				c-0.3,0.15-0.5,0.52-0.54,0.99c-0.03,0.45,0.12,0.81,0.43,1.02l0.07,0.06l1.17,0.09c1.91,0.16,1.98,0.34,1.98,4.67v14.53
				c0,4.39-0.11,4.41-2,4.63l-1.1,0.13l-0.17,0.07l-0.08,0.08c-0.37,0.38-0.31,0.94-0.29,1.1c0.06,0.38,0.25,0.67,0.57,0.83
				l0.13,0.03l0.08,0c2-0.08,3.41-0.12,5.12-0.12c1.64,0,3.03,0.04,5.04,0.12l0.06,0l0.13-0.02l0.08-0.04
				c0.45-0.23,0.52-0.82,0.53-0.99c0.03-0.44-0.11-0.8-0.39-0.99l-0.06-0.04l-1.2-0.17c-1.89-0.23-2-0.24-2-4.63V68.46
				C378.99,64.13,379.06,63.96,380.96,63.8z"/>
			<path class="st1" d="M418.75,63.79l0.64-0.09l0.17-0.07l0.08-0.08c0.25-0.25,0.37-0.64,0.33-1.03c-0.04-0.37-0.23-0.68-0.57-0.89
				l-0.16-0.05l-0.11,0.01c-1.33,0.08-2.38,0.12-4.17,0.12c-1.46,0-2.8-0.04-4.84-0.12l-0.11,0.01l-0.07,0.03
				c-0.32,0.12-0.54,0.41-0.61,0.8c-0.06,0.34,0,0.85,0.41,1.2l0.08,0.07l0.86,0.1c1.58,0.2,2.04,0.42,2.13,0.56
				c0.22,0.34,0.73,1.84,0.73,8.15c0,0,0,9.13,0,9.32c-1.34-1.41-2.76-3-4.51-4.96l-5.46-6.12c-4.04-4.53-6.35-7.49-6.87-8.8
				l-0.16-0.42l-0.44,0.07c-0.47,0.07-1.12,0.12-1.79,0.12c-0.71,0-2.88,0-4.63-0.13l-0.15,0.02l-0.08,0.04
				c-0.29,0.14-0.49,0.43-0.54,0.8c-0.07,0.41,0.06,0.85,0.38,1.17l0.08,0.08l0.88,0.1c1.02,0.13,1.8,0.42,2.19,0.8
				c0.68,0.74,0.75,1.38,0.75,2.56v12.17c0,1.96,0.01,6.54-0.48,7.8c-0.04,0.08-0.24,0.35-1.35,0.49l-1.18,0.13L390,87.82
				l-0.08,0.08c-0.23,0.23-0.35,0.59-0.32,0.97c0.03,0.38,0.2,0.71,0.53,0.94l0.18,0.07l0.12-0.01c1.4-0.08,2.48-0.12,4.21-0.12
				c1.41,0,2.79,0.04,4.83,0.13l0.17-0.04l0.09-0.06c0.25-0.18,0.41-0.45,0.46-0.78c0.06-0.36-0.04-0.74-0.32-1.12l-0.08-0.11
				l-1.52-0.15c-1.13-0.09-1.57-0.35-1.64-0.49c-0.15-0.27-0.66-1.67-0.66-8.17v-8.89c0-0.47,0.01-1.01,0.03-1.48
				c0.64,0.74,1.52,1.77,2.31,2.71c0.67,0.79,1.3,1.53,1.7,2l9.47,10.78c3.14,3.58,4.65,5.35,5.19,6.12l0.17,0.23h0.29
				c0.63,0,1.13-0.32,1.32-0.87l0.02-0.12l-0.01-0.07c-0.05-0.47-0.12-2.08-0.12-7.07l0-10.35c-0.01-1.9-0.01-6.35,0.54-7.54
				C416.87,64.37,417.21,64.04,418.75,63.79z"/>
			<path class="st1" d="M442,74.54c0,0,3.03-5.24,3.25-5.63c1.57-2.74,2.7-4.72,4.32-5l1.21-0.22l0.13-0.06l0.07-0.06
				c0.27-0.23,0.41-0.6,0.38-0.99c-0.03-0.39-0.23-0.74-0.6-0.96l-0.16-0.05l-0.1,0.01c-1.42,0.08-2.55,0.12-3.76,0.12
				s-2.38-0.04-3.94-0.13l-0.14,0.02l-0.08,0.04c-0.3,0.15-0.5,0.44-0.56,0.81c-0.07,0.41,0.06,0.83,0.4,1.16l0.08,0.08l0.92,0.1
				c0.59,0.08,0.99,0.2,1.18,0.27c-0.29,0.78-1.69,3.39-2.33,4.57l-0.22,0.4c-0.91,1.77-1.98,3.7-3.33,6.03
				c-0.99-1.81-1.96-3.79-2.92-5.75c-0.4-0.82-0.8-1.63-1.2-2.43c-0.31-0.64-1.06-2.35-1.19-2.81c0.11-0.05,0.43-0.15,1.22-0.27
				l0.61-0.09l0.16-0.07l0.08-0.08c0.28-0.29,0.4-0.77,0.3-1.2c-0.08-0.36-0.32-0.64-0.66-0.75l-0.12-0.02l-0.08,0.01
				c-0.99,0.08-2.44,0.12-4.32,0.12c-1.93,0-3.38-0.04-4.77-0.13l-0.16,0.03l-0.08,0.05c-0.26,0.15-0.44,0.42-0.5,0.77
				c-0.07,0.41,0.03,0.82,0.33,1.16l0.08,0.09l1.34,0.24c1.03,0.17,1.51,0.25,2.82,2.81l4.81,9.39c1.13,2.18,1.25,2.62,1.25,4.8
				v2.08c0,4.43-0.11,4.44-1.94,4.63l-1.35,0.13l-0.18,0.07l-0.08,0.08c-0.37,0.38-0.31,0.94-0.29,1.11
				c0.06,0.38,0.25,0.67,0.57,0.83l0.13,0.03l0.08,0c2.12-0.08,3.6-0.12,5.32-0.12c1.68,0,3.12,0.05,5.53,0.12l0.06,0l0.14-0.02
				l0.08-0.04c0.27-0.13,0.45-0.43,0.52-0.8c0.02-0.17,0.08-0.73-0.35-1.17l-0.08-0.08l-1.76-0.14c-1.6-0.12-1.93-0.14-1.93-4.63
				v-2.12C440.16,77.84,440.23,77.6,442,74.54z"/>
			<path class="st1" d="M563.97,120.71c0,0,3.03-5.24,3.25-5.63c1.57-2.74,2.7-4.72,4.32-5l1.21-0.22l0.13-0.06l0.07-0.06
				c0.27-0.23,0.41-0.6,0.38-0.99c-0.03-0.39-0.23-0.74-0.6-0.96l-0.16-0.05l-0.1,0.01c-1.42,0.08-2.55,0.12-3.76,0.12
				s-2.38-0.04-3.94-0.13l-0.14,0.02l-0.08,0.04c-0.3,0.15-0.5,0.44-0.56,0.81c-0.07,0.41,0.06,0.83,0.4,1.16l0.08,0.08l0.92,0.1
				c0.59,0.08,0.99,0.2,1.18,0.27c-0.29,0.78-1.69,3.39-2.33,4.57l-0.22,0.4c-0.91,1.77-1.98,3.7-3.33,6.03
				c-0.99-1.81-1.96-3.79-2.92-5.75c-0.4-0.82-0.8-1.63-1.2-2.43c-0.31-0.64-1.06-2.35-1.19-2.81c0.11-0.05,0.43-0.15,1.22-0.27
				l0.61-0.09l0.16-0.07l0.08-0.08c0.28-0.29,0.4-0.77,0.3-1.2c-0.08-0.36-0.32-0.64-0.66-0.75l-0.12-0.02l-0.08,0.01
				c-0.99,0.08-2.44,0.12-4.32,0.12c-1.93,0-3.38-0.04-4.77-0.13l-0.16,0.03l-0.08,0.05c-0.26,0.15-0.44,0.42-0.5,0.77
				c-0.07,0.41,0.03,0.82,0.33,1.16l0.08,0.09l1.34,0.24c1.03,0.17,1.51,0.25,2.82,2.81l4.81,9.39c1.13,2.18,1.25,2.62,1.25,4.8
				v2.08c0,4.43-0.11,4.44-1.94,4.63l-1.35,0.13l-0.18,0.07l-0.08,0.08c-0.37,0.38-0.31,0.94-0.29,1.11
				c0.06,0.38,0.25,0.67,0.57,0.83l0.13,0.03l0.08,0c2.12-0.08,3.6-0.12,5.32-0.12c1.68,0,3.12,0.05,5.53,0.12l0.06,0l0.14-0.02
				l0.08-0.04c0.27-0.13,0.45-0.43,0.52-0.8c0.02-0.17,0.08-0.73-0.35-1.17l-0.08-0.08l-1.76-0.14c-1.6-0.12-1.93-0.14-1.93-4.63
				v-2.12C562.13,124.01,562.2,123.77,563.97,120.71z"/>
			<path class="st1" d="M455.91,89.84l0.13,0.03l0.08,0c2.46-0.08,3.8-0.12,5.53-0.12h3.67c3.57,0,7.25,0.04,10.93,0.12l0.36,0.01
				l0.15-0.32c0.55-1.14,1.59-4.34,1.9-5.88l-0.01-0.17l-0.04-0.09c-0.22-0.49-0.75-0.71-1.18-0.71c-0.25,0-0.49,0.07-0.74,0.26
				l-0.09,0.12l-0.02,0.03c-1.07,2.14-2.11,3.41-2.65,3.71c-0.84,0.42-2.05,0.55-4.98,0.55c-3.31,0-4.14-0.37-4.53-0.76
				c-0.52-0.55-0.62-1.89-0.62-3.86v-5.75c0-0.23,0-0.47,0.01-0.5c0.08-0.04,0.42-0.04,0.78-0.04h2.37c1.41,0,2.46,0.03,3.01,0.19
				c0.47,0.12,0.7,0.41,0.86,1.14l0.39,1.67l0.06,0.13l0.03,0.03c0.2,0.24,0.55,0.38,0.95,0.38c0.46,0,0.84-0.18,1.05-0.55
				l0.04-0.13V79.2c0-0.4-0.03-0.91-0.07-1.53c-0.04-0.74-0.1-1.57-0.1-2.39c0-0.85,0.05-1.72,0.1-2.51
				c0.04-0.63,0.07-1.17,0.07-1.67l-0.03-0.14l-0.04-0.08c-0.18-0.31-0.56-0.5-1.02-0.5c-0.4,0-0.75,0.14-0.95,0.38l-0.05,0.06
				l-0.4,1.86c-0.17,0.86-0.35,0.92-0.61,1.01c-0.41,0.13-1.64,0.22-3.29,0.22h-2.37c-0.36,0-0.7,0-0.76-0.02
				c-0.03-0.06-0.03-0.32-0.03-0.56v-8.16c0-0.49,0-0.96,0.06-1.04c0.06-0.04,0.35-0.04,0.61-0.04h2.94c1.77,0,3.02,0.04,3.82,0.23
				c1.73,0.43,2.07,1.5,2.63,3.26l0.1,0.3l0.06,0.1l0.02,0.02c0.18,0.22,0.49,0.35,0.85,0.35c0.34,0,0.82-0.12,1.1-0.54l0.07-0.1
				l-0.07-0.77c-0.21-2.35-0.4-4.34-0.63-4.99l-0.17-0.47l-0.49,0.12c-0.42,0.11-3.17,0.11-5.37,0.11h-7.67
				c-1.59,0-2.93-0.03-4.85-0.12l-0.14,0.02l-0.07,0.04c-0.31,0.15-0.51,0.52-0.54,0.99c-0.03,0.45,0.11,0.8,0.39,0.99l0.06,0.04
				l0.84,0.13c1.89,0.23,2,0.24,2,4.59v14.69c0,4.37-0.23,4.39-2.03,4.55l-1.43,0.13l-0.18,0.07l-0.08,0.08
				c-0.38,0.38-0.32,0.94-0.29,1.11C455.4,89.39,455.59,89.68,455.91,89.84z"/>
			<path class="st1" d="M363.81,107.8l-0.19-0.05l-0.11,0.01c-1.3,0.08-2.34,0.12-4.14,0.12c-1.52,0-2.89-0.03-4.82-0.13l-0.12,0.02
				l-0.07,0.02c-0.34,0.13-0.58,0.44-0.65,0.85c-0.09,0.48,0.06,0.94,0.45,1.28l0.08,0.06l0.87,0.1c1.74,0.22,2.02,0.46,2.06,0.53
				c0.17,0.27,0.72,1.64,0.72,8.07c0,0,0,8.95,0,9.09c-1.2-1.26-2.46-2.68-4.01-4.41l-5.79-6.49c-5-5.59-6.46-7.83-6.82-8.73
				l-0.18-0.46l-0.49,0.08c-0.44,0.07-1.07,0.11-1.76,0.11c-0.71,0-2.86,0-4.62-0.13l-0.16,0.03l-0.08,0.04
				c-0.31,0.15-0.52,0.46-0.58,0.84c-0.07,0.44,0.06,0.89,0.42,1.25l0.08,0.08l0.89,0.1c1.01,0.13,1.77,0.41,2.14,0.78
				c0.66,0.72,0.73,1.34,0.73,2.5v12.1c0,1.77,0.01,6.48-0.47,7.73c-0.02,0.05-0.19,0.3-1.29,0.45l-1.2,0.14l-0.18,0.08l-0.08,0.08
				c-0.25,0.24-0.38,0.61-0.34,1.01c0.03,0.4,0.21,0.74,0.58,1.01l0.2,0.06l0.12-0.01c1.45-0.08,2.55-0.12,4.19-0.12
				c1.69,0,3.27,0.06,4.82,0.13l0.19-0.06l0.09-0.06c0.26-0.18,0.44-0.47,0.49-0.81c0.06-0.38-0.03-0.78-0.26-1.08l-0.17-0.22
				l-1.55-0.15c-1.13-0.09-1.52-0.36-1.58-0.45c-0.15-0.27-0.65-1.65-0.65-8.09v-8.84c0-0.38,0-0.85,0.03-1.3
				c0.54,0.63,1.23,1.44,1.89,2.22l0.24,0.28c0.69,0.81,1.33,1.57,1.74,2.04l9.41,10.71c3.12,3.55,4.61,5.3,5.15,6.07l0.18,0.27
				h0.32c0.66,0,1.18-0.33,1.39-0.94l0.01-0.13l-0.01-0.07c-0.05-0.46-0.12-2.06-0.12-7.03v-10.24c0-1.89-0.02-6.34,0.52-7.49
				c0,0,0.34-0.32,1.82-0.55l0.67-0.09l0.18-0.09l0.08-0.08c0.26-0.27,0.39-0.67,0.34-1.08
				C364.38,108.37,364.18,108.04,363.81,107.8z"/>
			<path class="st1" d="M379.23,110.1l1.09-0.08l0.15-0.05l0.07-0.05c0.3-0.2,0.45-0.58,0.42-1.05c-0.02-0.24-0.11-0.81-0.64-1.07
				l-0.15-0.03l-0.08,0c-2.14,0.09-3.5,0.12-5.01,0.12c-1.64,0-2.97-0.03-5.16-0.13l-0.16,0.03l-0.08,0.04
				c-0.48,0.24-0.55,0.87-0.56,1.06c-0.02,0.46,0.13,0.84,0.43,1.04l0.07,0.04l1.24,0.13c1.76,0.15,1.9,0.16,1.9,4.57v14.45
				c0,4.3-0.07,4.31-1.93,4.53l-1.11,0.13l-0.18,0.08l-0.08,0.08c-0.32,0.31-0.37,0.8-0.32,1.15c0.06,0.4,0.26,0.72,0.62,0.9
				l0.15,0.03l0.08,0c2.23-0.08,3.5-0.12,5.09-0.12c1.54,0,2.79,0.04,5.01,0.12l0.07,0l0.15-0.03l0.08-0.04
				c0.49-0.25,0.56-0.87,0.57-1.05c0.03-0.46-0.13-0.84-0.42-1.04l-0.06-0.04l-1.22-0.18c-1.85-0.22-1.93-0.23-1.93-4.53v-14.45
				C377.32,110.26,377.47,110.24,379.23,110.1z"/>
			<path class="st1" d="M414.94,107.79l-0.17-0.04l-0.09,0.01c-1.27,0.08-2.51,0.12-3.89,0.12c-1.65,0-3.13-0.04-4.27-0.13
				l-0.18,0.04l-0.09,0.05c-0.31,0.18-0.52,0.54-0.56,0.96c-0.04,0.42,0.1,0.82,0.46,1.12l0.08,0.07l0.92,0.1
				c0.8,0.09,1.14,0.23,1.27,0.3c-0.02,0.24-0.08,0.6-0.32,1.22c-0.7,1.76-2.63,6.4-3.76,9.07c-0.3,0.68-0.67,1.57-1.08,2.54
				c-0.64,1.51-1.48,3.51-2.23,5.19c-1.82-4.22-3.56-8.58-5.2-12.71c-1.04-2.55-1.72-4.57-1.93-5.32c0.15-0.06,0.5-0.17,1.31-0.28
				l0.7-0.09l0.16-0.07l0.08-0.06c0.28-0.24,0.43-0.64,0.39-1.07c-0.05-0.43-0.26-0.79-0.65-1.01l-0.17-0.04l-0.09,0.01
				c-1.7,0.09-3.12,0.12-4.88,0.12c-1.73,0-3.02-0.03-4.27-0.13l-0.19,0.04l-0.09,0.06c-0.32,0.2-0.53,0.57-0.56,0.98
				c-0.03,0.41,0.13,0.8,0.47,1.09l0.08,0.07l0.92,0.1c1.36,0.16,1.85,0.68,2.78,2.95l7.14,17.61c0.83,2.05,1.47,3.88,1.84,5.31
				l0.08,0.31l0.29,0.12c0.28,0.11,0.56,0.17,0.84,0.17c0.29,0,0.58-0.08,0.87-0.28l0.13-0.16l0.04-0.11
				c0.69-2.17,2.63-6.94,4.19-10.53l2.19-4.99c1.93-4.36,3.44-7.47,4.5-9.25c0.47-0.75,0.92-1.07,1.63-1.13l1.44-0.09l0.17-0.17
				c0.29-0.3,0.35-0.78,0.31-1.13C415.5,108.31,415.31,108,414.94,107.79z"/>
			<path class="st1" d="M328.34,107.8l-0.18-0.05l-0.11,0.01c-1.55,0.09-2.62,0.12-4.22,0.12c-1.59,0-3.1-0.04-4.69-0.13l-0.18,0.05
				l-0.09,0.06c-0.26,0.17-0.44,0.48-0.49,0.85c-0.05,0.4,0.05,0.78,0.28,1.05l0.17,0.2l1.27,0.1c0.95,0.08,1.42,0.33,1.54,0.54
				c0.21,0.36,0.69,1.88,0.69,8.09v4.66c0,4.64-1.3,10.17-7.49,10.17c-5.2,0-7.61-3.24-7.61-10.21v-8.77c0-4.33,0.14-4.34,1.86-4.49
				l1.05-0.09l0.15-0.05l0.07-0.05c0.29-0.2,0.44-0.57,0.41-1.02c-0.01-0.18-0.08-0.78-0.64-1.06l-0.15-0.03l-0.08,0.01
				c-2.07,0.09-3.37,0.12-4.96,0.12c-1.51,0-2.87-0.03-5.08-0.13l-0.15,0.03l-0.08,0.04c-0.48,0.25-0.56,0.85-0.57,1.03
				c-0.03,0.45,0.13,0.83,0.48,1.06l0.07,0.05l1.17,0.09c1.72,0.15,1.86,0.16,1.86,4.49v9.58c0,4.94,1.08,8.13,3.38,10.05
				c1.85,1.58,4.54,2.38,8,2.38c3.27,0,6.42-1.21,8.2-3.16c2.02-2.16,3.01-5.47,3.01-10.12v-4.58c0-1.86,0-6.81,0.51-8.02
				c0.12-0.25,0.67-0.54,1.52-0.61l1.23-0.1l0.17-0.2c0.24-0.28,0.35-0.71,0.28-1.1C328.87,108.31,328.69,108.02,328.34,107.8z"/>
			<path class="st1" d="M543.08,106.7c-0.18,0-0.35,0.03-0.58,0.12l-0.16,0.13l-0.05,0.1c-0.44,0.75-0.48,0.82-2.63,0.82H522.9
				c-1.93,0-2.4-0.14-2.53-0.84l-0.08-0.17l-0.08-0.07c-0.18-0.17-0.43-0.25-0.78-0.25c-0.15,0-0.53,0.02-0.77,0.18l-0.22,0.14
				l-0.05,0.27c-0.28,1.61-0.88,4.15-1.52,5.94l-0.09,0.25l0.13,0.24c0.22,0.42,0.75,0.72,1.29,0.72c0.27,0,0.51-0.08,0.76-0.27
				l0.14-0.19c0.39-0.91,0.76-1.76,1.67-2.59c0.82-0.75,2.87-0.85,4.57-0.85h2.23c0.26,0,0.52,0,0.56,0.01
				c0.04,0.07,0.04,0.37,0.04,0.67v18.13c0,4.28-0.22,4.3-1.95,4.45l-1.53,0.14l-0.2,0.08c-0.34,0.21-0.53,0.62-0.51,1.1
				c0.01,0.18,0.08,0.76,0.62,1.04l0.07,0.04l0.39-0.01c2.45-0.08,3.8-0.12,5.39-0.12c1.61,0,2.99,0.04,5.29,0.12l0.08,0l0.15-0.03
				l0.08-0.04c0.33-0.17,0.54-0.57,0.57-1.06c0.03-0.46-0.13-0.84-0.43-1.03l-0.06-0.04l-1.52-0.18c-1.76-0.15-1.86-0.16-1.86-4.45
				v-18.19c0-0.19,0-0.45,0.01-0.61c0.15-0.02,0.4-0.02,0.54-0.02h2.88c2.11,0,3.53,0.29,4.34,0.89c0.19,0.14,0.56,0.83,0.78,2.62
				l0.07,0.17l0.06,0.07c0.21,0.25,0.57,0.39,0.97,0.39c0.51,0,0.94-0.23,1.15-0.67l0.03-0.17l-0.01-0.09
				c-0.12-1.14,0.16-4.34,0.59-5.94l0.06-0.23l-0.11-0.22C543.87,106.75,543.31,106.7,543.08,106.7z"/>
			<path class="st1" d="M440.93,129.51c-0.23-0.51-0.79-0.74-1.24-0.74c-0.26,0-0.5,0.07-0.77,0.27l-0.13,0.17
				c-1.21,2.42-2.21,3.44-2.6,3.65c-0.83,0.41-2.02,0.55-4.92,0.55c-3.28,0-4.09-0.38-4.46-0.74c-0.5-0.53-0.6-1.84-0.6-3.79v-5.72
				c0-0.19,0-0.41,0-0.44c0.07-0.04,0.39-0.04,0.72-0.04h2.36c1.39,0,2.42,0.03,2.97,0.18c0.44,0.11,0.65,0.39,0.8,1.08l0.39,1.65
				l0.1,0.18c0.21,0.26,0.58,0.41,1.01,0.41c0.48,0,0.88-0.2,1.11-0.6l0.04-0.15v-0.09c0-0.4-0.03-0.93-0.07-1.56
				c-0.04-0.72-0.09-1.54-0.09-2.33c0-0.83,0.05-1.67,0.09-2.47c0.04-0.63,0.07-1.19,0.07-1.7l-0.04-0.16l-0.04-0.08
				c-0.19-0.33-0.6-0.54-1.08-0.54c-0.41,0-0.78,0.15-1,0.4l-0.05,0.07l-0.4,1.88c-0.17,0.82-0.32,0.87-0.56,0.95
				c-0.41,0.14-1.63,0.22-3.25,0.22h-2.36c-0.33,0-0.64,0-0.69-0.01c-0.03-0.06-0.03-0.28-0.03-0.5v-8.11c0-0.46,0-0.89,0.05-0.97
				c0.06-0.03,0.32-0.03,0.55-0.03h2.92c1.47,0,2.95,0.03,3.79,0.22c1.68,0.43,2.02,1.47,2.56,3.21l0.1,0.28l0.07,0.13l0.02,0.02
				c0.2,0.24,0.52,0.37,0.9,0.37c0.37,0,0.86-0.13,1.17-0.59l0.07-0.1l-0.08-0.91c-0.2-2.28-0.39-4.22-0.62-4.86l-0.19-0.54
				l-0.55,0.14c-0.42,0.1-3.14,0.1-5.33,0.1h-7.63c-1.64,0-3.02-0.04-4.84-0.13l-0.15,0.03l-0.08,0.04
				c-0.46,0.23-0.55,0.8-0.57,1.04c-0.03,0.47,0.12,0.85,0.42,1.05l0.06,0.04l0.86,0.14c1.82,0.22,1.93,0.23,1.93,4.5v14.61
				c0,4.28-0.22,4.3-1.95,4.45l-1.56,0.14l-0.17,0.16c-0.39,0.4-0.34,0.99-0.31,1.17c0.07,0.4,0.27,0.7,0.61,0.87l0.15,0.04
				l0.37-0.01c2.2-0.07,3.52-0.11,5.22-0.11h3.65c3.43,0,6.98,0.04,10.86,0.12l0.4,0.01l0.17-0.36c0.55-1.13,1.58-4.32,1.9-5.88
				l-0.02-0.19L440.93,129.51z"/>
			<path class="st1" d="M473.25,134.36l-0.14-0.03c-0.91-0.07-1.8-0.42-2.44-0.99c-2.76-2.31-4.97-5.72-8.03-10.65
				c-0.06-0.1-0.1-0.17-0.13-0.23c1.48-0.67,5.09-2.76,5.09-7.19c0-3.56-2.01-5.36-3.69-6.23c-2.1-1.14-4.75-1.3-7.07-1.3
				c-3.69,0-6.58,0.1-9.17,0.34l-0.16,0.05c-0.33,0.17-0.55,0.52-0.59,0.96c-0.04,0.45,0.14,0.9,0.46,1.12l0.07,0.05l1.52,0.22
				c1.05,0.13,1.24,0.15,1.24,4.13v14.56c0,4.23-0.07,4.24-1.89,4.46l-1.12,0.14l-0.2,0.1l-0.08,0.1c-0.3,0.35-0.34,0.85-0.27,1.19
				c0.08,0.37,0.27,0.65,0.61,0.82l0.15,0.03l0.09,0c1.85-0.08,3.34-0.12,5.04-0.12c1.66,0,3.02,0.04,4.88,0.12l0.15-0.03l0.08-0.04
				c0.3-0.15,0.5-0.48,0.56-0.94c0.05-0.46-0.08-0.87-0.42-1.16l-0.07-0.06l-1.03-0.15c-1.83-0.25-1.89-0.26-1.89-4.46v-5.11
				c0-0.09,0-0.21-0.02-0.21h0c0.11-0.06,0.64-0.06,1.31-0.06c1.43,0,1.87,0.3,2.37,1.03c0.62,0.9,1.34,2.04,2.03,3.14
				c0.69,1.09,1.4,2.22,1.95,3c2.86,4.07,5.02,5.37,8.91,5.37c0.83,0,1.54-0.09,2.04-0.26l0.14-0.08c0.27-0.21,0.41-0.57,0.36-0.91
				C473.81,134.77,473.59,134.49,473.25,134.36z M460.89,120.42c-1.09,0.82-2.61,0.93-3.81,0.93c-1.39,0-2.01-0.04-2.28-0.07
				c-0.01-0.23-0.01-0.59-0.01-0.85v-9.49c0-0.68,0-0.68,2.01-0.68c4.33,0,5.87,3.03,5.87,5.63
				C462.67,118.01,462.08,119.49,460.89,120.42z"/>
			<path class="st1" d="M510.01,110.1l1.1-0.1l0.21-0.08c0.29-0.2,0.45-0.58,0.42-1.04c-0.01-0.18-0.08-0.8-0.63-1.08l-0.15-0.03
				l-0.08,0c-2.14,0.09-3.5,0.12-5,0.12c-1.64,0-2.98-0.03-5.16-0.13l-0.15,0.03l-0.07,0.04c-0.48,0.24-0.56,0.86-0.57,1.05
				c-0.03,0.47,0.13,0.85,0.48,1.08l0.07,0.05l1.18,0.09c1.76,0.15,1.9,0.16,1.9,4.57v14.45c0,4.3-0.07,4.31-1.93,4.53l-1.11,0.13
				l-0.19,0.08l-0.08,0.08c-0.32,0.32-0.37,0.81-0.31,1.16c0.06,0.4,0.27,0.71,0.62,0.89l0.15,0.03l0.08,0
				c2.22-0.08,3.48-0.12,5.09-0.12c1.53,0,2.78,0.04,5.01,0.12l0.08,0l0.15-0.03l0.08-0.04c0.32-0.17,0.54-0.56,0.56-1.06
				c0.02-0.46-0.13-0.83-0.42-1.03l-0.06-0.04l-1.22-0.18c-1.85-0.22-1.93-0.23-1.93-4.53v-14.45
				C508.1,110.26,508.25,110.24,510.01,110.1z"/>
			<path class="st1" d="M488.05,120.11l-3.25-2.03c-1.18-0.73-3.15-2.29-3.15-4.46c0-1.77,0.73-3.88,4.21-3.88
				c3.35,0,4.37,2.09,4.94,4.19l0.1,0.17c0.19,0.23,0.49,0.35,0.85,0.35c0.4,0,0.91-0.16,1.21-0.6l0.06-0.18v-0.1
				c0-1.85-0.4-4.17-0.77-5.16l-0.15-0.41h-0.44c-0.27,0-0.78-0.08-1.26-0.22c-0.99-0.27-2.53-0.55-3.94-0.55
				c-5.32,0-8.9,3.05-8.9,7.6c0,3.65,2.53,6.09,4.66,7.5l3.86,2.52c2.67,1.72,3.04,3.49,3.04,5.16c0,2.01-1.37,4.04-4.45,4.04
				c-3.91,0-5.63-3.04-6.39-5.63l-0.05-0.1l-0.02-0.03c-0.18-0.27-0.5-0.42-0.88-0.42c-0.34,0-0.84,0.14-1.18,0.61l-0.06,0.19
				l0,0.11c0.08,1.9,0.61,4.91,1.21,6.02l0.12,0.13l0.08,0.05c1.03,0.59,3.27,1.58,6.64,1.58c5.54,0,9.26-3.27,9.26-8.13
				C493.41,125.06,491.66,122.34,488.05,120.11z"/>
		</g>
		<g>
			<path class="st1" d="M304.76,150.97l0.68-0.05l0.05-0.03c0.13-0.09,0.2-0.27,0.18-0.49c-0.01-0.09-0.04-0.39-0.26-0.5l-0.05-0.03
				l-0.06,0c-1.22,0.05-2.06,0.08-3.05,0.08c-1.04,0-1.86-0.03-3.1-0.08l-0.06,0l-0.05,0.03c-0.22,0.11-0.25,0.42-0.25,0.51
				c-0.01,0.22,0.06,0.4,0.19,0.48l0.05,0.03l0.67,0.05c1.23,0.1,1.3,0.27,1.3,2.94v8.78c0,2.63-0.06,2.77-1.31,2.92l-0.69,0.09
				l-0.05,0.05c-0.15,0.15-0.17,0.39-0.14,0.57c0.03,0.19,0.12,0.34,0.25,0.4l0.05,0.02l0.06,0c1.24-0.05,2.06-0.07,3.1-0.07
				c0.98,0,1.83,0.02,3.05,0.07l0.05,0l0.05-0.02c0.22-0.1,0.25-0.4,0.26-0.49c0.02-0.23-0.05-0.41-0.18-0.5l-0.71-0.11
				c-1.25-0.15-1.31-0.28-1.31-2.92v-8.78C303.45,151.24,303.53,151.08,304.76,150.97z"/>
			<path class="st1" d="M336.86,157.35l-1.97-1.24c-0.74-0.46-1.99-1.45-1.99-2.85c0-0.94,0.35-2.52,2.72-2.52
				c2.16,0,2.81,1.41,3.14,2.63l0.04,0.08c0.09,0.11,0.25,0.16,0.44,0.16c0.17-0.01,0.41-0.08,0.53-0.25l0.04-0.06v-0.07
				c0-1.01-0.21-2.43-0.46-3.09l-0.05-0.14h-0.15c-0.16,0-0.48-0.04-0.81-0.14c-0.78-0.21-1.65-0.33-2.35-0.33
				c-3.14,0-5.25,1.79-5.25,4.46c0,2.15,1.5,3.59,2.76,4.43l2.35,1.53c1.78,1.14,1.93,2.28,1.93,3.27c0,1.21-0.75,2.62-2.87,2.62
				c-2.49,0-3.56-1.91-4.03-3.52l-0.03-0.06c-0.08-0.12-0.22-0.18-0.39-0.18c-0.16-0.01-0.42,0.06-0.56,0.25l-0.05,0.06l0,0.08
				c0.05,1.12,0.37,2.95,0.69,3.55l0.03,0.05l0.05,0.03c0.48,0.28,1.84,0.94,3.96,0.94c3.28,0,5.48-1.92,5.48-4.78
				C340.05,160.29,339.01,158.68,336.86,157.35z"/>
			<path class="st1" d="M379.27,149.27l-0.07,0.03l-0.04,0.06c-0.3,0.52-0.39,0.58-1.73,0.58h-10.08c-0.01,0-0.03,0-0.04,0
				c-1.11,0-1.65-0.03-1.75-0.59l-0.01-0.06l-0.05-0.05c-0.17-0.18-0.62-0.11-0.74-0.03l-0.08,0.05l-0.02,0.09
				c-0.17,0.98-0.54,2.55-0.93,3.64l-0.03,0.09l0.04,0.08c0.08,0.16,0.26,0.29,0.46,0.33c0.19,0.04,0.37,0.01,0.51-0.09l0.05-0.03
				l0.02-0.05c0.25-0.57,0.49-1.1,1.06-1.63c0.54-0.49,1.76-0.56,2.89-0.56h1.36c0.17,0,0.44,0,0.48,0.03
				c0.04,0.05,0.04,0.29,0.04,0.53v11.03c0,2.65-0.15,2.76-1.33,2.86l-0.89,0.08l-0.09,0.03c-0.16,0.09-0.24,0.29-0.23,0.52
				c0.01,0.18,0.08,0.39,0.25,0.48l0.05,0.02l0.05,0c1.57-0.05,2.44-0.07,3.42-0.07c1,0,1.88,0.03,3.22,0.07l0.06,0l0.05-0.02
				c0.22-0.11,0.25-0.41,0.26-0.5c0.01-0.22-0.05-0.4-0.18-0.49l-0.89-0.11c-1.22-0.1-1.28-0.24-1.28-2.86v-11.06
				c0-0.22,0-0.46,0.03-0.5c0.05-0.03,0.3-0.03,0.47-0.03h1.75c1.32,0,2.21,0.19,2.73,0.58c0.11,0.08,0.37,0.39,0.53,1.65l0.01,0.06
				l0.04,0.05c0.14,0.16,0.39,0.2,0.56,0.18c0.21-0.02,0.37-0.12,0.44-0.27l0.03-0.06l-0.01-0.06c-0.07-0.71,0.1-2.69,0.36-3.67
				l0.02-0.08l-0.04-0.08C379.87,149.2,379.45,149.19,379.27,149.27z"/>
			<path class="st1" d="M416.2,165.61c-0.91-0.11-1.2-0.35-1.92-2.47l-3.49-10.24c-0.34-0.98-0.68-2-0.97-2.97
				c-0.07-0.24-0.28-0.38-0.58-0.38h-0.1l-0.07,0.08c-0.28,0.33-0.66,0.72-1.18,0.87l-0.19,0.06l0.04,0.2
				c0.06,0.33-0.07,0.77-0.41,1.63l-2.52,6.66c-0.7,1.88-1.26,3.24-1.66,4.24c-0.2,0.48-0.36,0.89-0.5,1.26
				c-0.35,0.88-0.88,1.04-1.3,1.07l-0.88,0.08l-0.05,0.04c-0.12,0.1-0.17,0.26-0.17,0.46c0.01,0.17,0.07,0.4,0.23,0.51l0.06,0.04
				l0.54-0.02c0.59-0.03,1.26-0.06,1.89-0.06l0.93,0.02c0.66,0.01,1.18,0.02,1.62,0.05l0.06,0l0.05-0.02
				c0.17-0.08,0.28-0.25,0.29-0.46c0.02-0.22-0.06-0.42-0.21-0.53l-0.05-0.04l-0.88-0.08c-0.51-0.04-0.51-0.13-0.51-0.28
				c0-0.15,0.07-0.6,0.53-1.98l0.86-2.59c0.13-0.4,0.17-0.45,0.73-0.45h3.73c0.65,0,0.66,0.03,0.8,0.47l1.09,3.36
				c0.14,0.43,0.31,0.96,0.31,1.24c0,0.05-0.17,0.18-0.67,0.23l-0.77,0.08l-0.05,0.03c-0.14,0.1-0.22,0.29-0.2,0.5
				c0.01,0.22,0.12,0.4,0.28,0.48l0.05,0.03l0.47-0.02c0.65-0.03,1.45-0.06,2.41-0.06c1.13,0,2.01,0.03,2.97,0.08l0.08,0l0.06-0.05
				c0.15-0.13,0.2-0.37,0.19-0.53c-0.01-0.19-0.08-0.34-0.21-0.43L416.2,165.61z M410.26,158.86c-0.02,0.02-0.11,0.04-0.45,0.04
				h-3.03c-0.11,0-0.31,0-0.4-0.01c0.02-0.08,0.06-0.21,0.09-0.29l1.55-4.29c0.16-0.43,0.3-0.79,0.4-1.04
				c0.11,0.29,0.24,0.66,0.35,1.01l1.37,4.15C410.22,158.67,410.26,158.82,410.26,158.86z"/>
			<path class="st1" d="M457.65,149.86l-0.07,0c-0.8,0.05-1.44,0.08-2.52,0.08c-0.87,0-1.69-0.02-2.9-0.08l-0.05,0l-0.04,0.02
				c-0.15,0.06-0.26,0.21-0.29,0.4c-0.04,0.23,0.03,0.46,0.18,0.59l0.05,0.05l0.48,0.05c0.82,0.1,1.26,0.23,1.37,0.39
				c0.14,0.22,0.46,1.14,0.46,4.99v5.28c0,0.21,0,0.46-0.01,0.64c-0.83-0.86-1.7-1.84-2.78-3.05l-3.44-3.85l-0.04-0.05
				c-2.43-2.73-3.82-4.52-4.14-5.32l-0.06-0.16l-0.17,0.03c-0.29,0.05-0.7,0.08-1.1,0.08c-0.43,0-1.74,0-2.77-0.08l-0.06-0.01
				l-0.05,0.03c-0.14,0.07-0.23,0.22-0.26,0.4c-0.03,0.22,0.03,0.44,0.16,0.57l0.05,0.05l0.49,0.06c0.65,0.09,1.14,0.27,1.4,0.52
				c0.46,0.51,0.48,0.95,0.48,1.63v7.34c0,1.19,0,3.99-0.3,4.78c-0.04,0.1-0.22,0.28-0.91,0.37l-0.74,0.08l-0.05,0.05
				c-0.12,0.12-0.17,0.3-0.16,0.49c0.02,0.19,0.1,0.36,0.24,0.46l0.06,0.04l0.08,0c0.86-0.05,1.52-0.07,2.55-0.07
				c0.97,0,1.85,0.03,2.88,0.07l0.08,0l0.06-0.05c0.12-0.09,0.2-0.23,0.23-0.39c0.03-0.19-0.02-0.38-0.13-0.53l-0.06-0.08
				l-0.87-0.08c-0.69-0.06-1.01-0.22-1.09-0.36c-0.26-0.47-0.42-2.29-0.42-5v-5.38c0-0.36,0.01-0.83,0.05-1.18
				c0.41,0.46,1.07,1.24,1.66,1.94c0.37,0.44,0.72,0.85,0.95,1.11l5.72,6.51c1.9,2.16,2.81,3.23,3.14,3.71l0.06,0.09h0.11
				c0.34,0,0.59-0.16,0.68-0.42l0.02-0.05l-0.01-0.05c-0.03-0.29-0.07-1.26-0.07-4.29l0-6.23c0-1.26-0.01-3.89,0.35-4.65
				c0.03-0.06,0.33-0.26,1.22-0.4l0.42-0.06l0.05-0.05c0.12-0.12,0.19-0.33,0.16-0.53c-0.02-0.19-0.11-0.34-0.25-0.43L457.65,149.86
				z"/>
			<path class="st1" d="M491.59,157.4c-0.1-0.02-0.17-0.04-0.21-0.05c1.24-0.61,2.43-1.52,2.43-3.48c0-1.49-0.71-2.65-1.99-3.28
				c-1.24-0.64-2.92-0.72-4.24-0.72c-2.11,0-3.85,0.06-5.32,0.2l-0.08,0.02c-0.16,0.08-0.26,0.25-0.28,0.45
				c-0.02,0.22,0.06,0.42,0.22,0.54l0.05,0.04l0.86,0.08c0.89,0.08,1.01,0.32,1.01,2.18v9.37c0,2.66-0.09,2.68-1.17,2.87l-0.51,0.09
				l-0.05,0.05c-0.13,0.12-0.18,0.33-0.15,0.55c0.03,0.2,0.12,0.34,0.25,0.41l0.05,0.03l0.81-0.03c0.64-0.02,1.3-0.05,2.08-0.05
				c0.56,0,1.18,0.02,1.73,0.04c0.47,0.02,0.9,0.03,1.23,0.03c4.31,0,6.78-1.82,6.78-5.01C495.08,158.82,492.8,157.62,491.59,157.4z
				 M487.55,157.12c-0.39,0.02-0.92,0.04-1.01-0.05c-0.05-0.04-0.05-0.25-0.05-0.42v-5.01c0-0.38,0.06-0.39,0.22-0.44
				c0.19-0.09,0.55-0.13,1.05-0.13c0.81,0,3.46,0.22,3.46,3.11C491.21,156.2,490.18,157.02,487.55,157.12z M488.74,165.54
				c-0.88,0-1.43-0.19-1.79-0.62c-0.47-0.54-0.47-2.05-0.47-2.55v-3.65c0-0.33,0-0.42,1.21-0.42c4.08,0,4.69,2.5,4.69,4
				C492.4,165.11,490.1,165.54,488.74,165.54z"/>
			<path class="st1" d="M536.59,149.9l-0.06-0.04l-0.07,0c-0.85,0.05-1.52,0.08-2.58,0.08c-0.95,0-1.86-0.03-2.8-0.08l-0.07,0
				l-0.06,0.04c-0.12,0.08-0.2,0.23-0.23,0.41c-0.03,0.19,0.02,0.38,0.13,0.51l0.06,0.07l0.71,0.05c0.56,0.05,0.94,0.19,1.06,0.41
				c0.16,0.29,0.44,1.33,0.44,5v2.84c0,2.89-0.82,6.34-4.71,6.34c-3.27,0-4.79-2.02-4.79-6.37v-5.33c0-2.63,0.07-2.79,1.28-2.89
				l0.65-0.05l0.05-0.03c0.13-0.09,0.2-0.26,0.19-0.48c-0.01-0.18-0.08-0.41-0.26-0.5l-0.05-0.03l-0.06,0
				c-1.16,0.05-1.99,0.08-3.02,0.08c-1.02,0-1.86-0.03-3.05-0.08l-0.06,0l-0.05,0.03c-0.17,0.09-0.24,0.31-0.25,0.49
				c-0.01,0.21,0.05,0.39,0.18,0.47l0.05,0.03l0.67,0.05c1.21,0.1,1.28,0.26,1.28,2.89v5.82c0,2.99,0.62,4.84,2,5.99
				c1.09,0.93,2.69,1.41,4.76,1.41c1.95,0,3.81-0.72,4.87-1.87c1.2-1.29,1.79-3.27,1.79-6.05v-2.79c0-1.25,0-4.17,0.32-4.94
				c0.11-0.24,0.53-0.42,1.05-0.47l0.69-0.05l0.06-0.07c0.11-0.14,0.17-0.36,0.14-0.55C536.81,150.12,536.72,149.98,536.59,149.9z"
				/>
			<path class="st1" d="M573.08,162.72c-0.18-0.09-0.53-0.14-0.72,0.02l-0.06,0.09c-0.53,1.36-1.16,2.11-1.53,2.33
				c-0.35,0.2-0.88,0.29-2.9,0.29c-2.03,0-2.36-0.33-2.53-0.5c-0.39-0.41-0.46-1.02-0.46-2.52v-8.58c0-2.62,0.07-2.79,1.31-2.89
				l0.64-0.05l0.05-0.03c0.13-0.09,0.2-0.27,0.19-0.49c-0.01-0.09-0.04-0.4-0.26-0.51l-0.05-0.03l-0.06,0
				c-1.15,0.05-2.02,0.08-3.02,0.08c-0.98,0-1.82-0.02-3.2-0.08l-0.06,0l-0.05,0.03c-0.22,0.11-0.25,0.42-0.25,0.51
				c-0.01,0.22,0.05,0.4,0.18,0.48l0.05,0.03l0.67,0.05c1.34,0.11,1.41,0.24,1.41,2.89v8.88c0,2.61-0.06,2.74-1.28,2.86l-0.82,0.08
				l-0.06,0.06c-0.12,0.13-0.18,0.34-0.14,0.56c0.03,0.19,0.12,0.34,0.25,0.41l0.05,0.03l0.06,0c1.41-0.05,2.19-0.08,3.2-0.08h2.27
				c2.7,0,4.93,0.03,6.13,0.08l0.14,0.01l0.06-0.12c0.35-0.66,1.06-3.21,1.06-3.56C573.34,163,573.31,162.83,573.08,162.72z"/>
		</g>
		<rect x="276.18" y="53.22" class="st1" width="1.55" height="120.33"/>
		<g>
			<path class="st1" d="M132.21,138.95l-0.23-0.16l-2.71-0.38c-3.78-0.45-3.85-0.46-3.85-9.45V97.75c0-9.21,0.14-9.22,3.79-9.53
				l2.32-0.18l0.39-0.11l0.28-0.16c0.75-0.49,1.15-1.43,1.07-2.58c-0.09-1.22-0.64-2.15-1.55-2.6l-0.46-0.13l-0.24,0.01
				c-4.06,0.16-7.14,0.26-10.81,0.26c-3.75,0-6.68-0.09-11.2-0.26l-0.29,0.05l-0.31,0.13c-1.16,0.58-1.38,1.96-1.42,2.54
				c-0.07,1.16,0.33,2.09,1.12,2.63l0.28,0.21l2.66,0.21c3.65,0.31,3.8,0.32,3.8,9.53v31.21c0,9-0.07,9-3.85,9.45l-2.36,0.29
				l-0.49,0.18l-0.34,0.29c-1.01,1.02-0.81,2.52-0.76,2.81c0.16,1,0.68,1.74,1.5,2.15l0.46,0.13l0.24-0.01
				c4.31-0.17,7.34-0.26,10.98-0.26c3.5,0,6.5,0.09,10.81,0.26l0.51-0.05l0.31-0.13c1.16-0.59,1.38-1.98,1.42-2.55
				C133.34,140.38,132.95,139.44,132.21,138.95z"/>
			<path class="st1" d="M170.22,109.2l-7.02-4.39c-2.49-1.54-6.65-4.8-6.65-9.34c0-3.67,1.52-8.04,8.74-8.04
				c6.97,0,9.09,4.23,10.34,8.81l0.18,0.35l0.09,0.13c0.48,0.58,1.23,0.91,2.12,0.91c0.93,0,2.17-0.38,2.87-1.43l0.17-0.44
				l0.03-0.38c0-3.99-0.89-9.15-1.68-11.29L179,82.99h-1.18c-0.54,0-1.61-0.16-2.63-0.47c-2.15-0.58-5.54-1.19-8.59-1.19
				c-11.71,0-19.58,6.74-19.58,16.77c0,8.05,5.56,13.42,10.23,16.5l8.34,5.45c5.63,3.62,6.41,7.35,6.41,10.84
				c0,4.17-2.86,8.39-9.26,8.39c-8.24,0-11.88-6.5-13.52-12.03l-0.14-0.28c-0.46-0.69-1.24-1.07-2.19-1.07
				c-0.42,0-1.86,0.1-2.8,1.42l-0.23,0.58l0.01,0.34c0.19,4.25,1.35,10.77,2.63,13.13l0.28,0.33l0.3,0.21
				c1.8,1.04,6.82,3.47,14.53,3.47c12.18,0,20.37-7.2,20.37-17.92C181.97,120.06,178.13,114.09,170.22,109.2z"/>
			<path class="st1" d="M255.14,84.92c-0.15-0.92-0.65-1.64-1.49-2.17l-0.6-0.19l-0.32,0.01c-3.34,0.2-5.63,0.26-9.05,0.26
				c-3.44,0-6.64-0.08-10.06-0.27l-0.07,0l-0.47,0.12l-0.35,0.19c-0.68,0.45-1.14,1.24-1.28,2.17c-0.13,1,0.13,1.96,0.71,2.63
				l0.49,0.6l2.95,0.24c2.05,0.16,2.8,0.71,2.91,0.9c0.33,0.58,1.41,3.54,1.41,17.15v10.02c0,9.74-2.71,21.35-15.59,21.35
				c-10.82,0-15.86-6.81-15.86-21.43V97.67c0-8.85,0.13-8.86,3.55-9.15l2.26-0.19l0.44-0.13l0.28-0.17c0.77-0.53,1.17-1.49,1.1-2.63
				c-0.03-0.45-0.22-1.97-1.63-2.7l-0.51-0.13l-0.26,0c-4.44,0.19-7.23,0.26-10.64,0.26c-3.22,0-6.18-0.07-10.9-0.27l-0.06,0
				l-0.39,0.08l-0.29,0.12c-1.27,0.64-1.47,2.17-1.5,2.62c-0.07,1.19,0.37,2.14,1.26,2.73l0.26,0.18l2.66,0.22
				c3.4,0.29,3.54,0.3,3.54,9.15v20.58c0,10.77,2.37,17.75,7.44,21.96c4.06,3.47,9.95,5.23,17.5,5.23c7.17,0,14.06-2.67,17.99-6.95
				c4.44-4.75,6.59-11.97,6.59-22.09v-9.84c0-3.59,0-14.53,1.06-17.03c0.13-0.29,1.1-0.88,2.84-1.02l2.86-0.24l0.49-0.59
				C255.01,86.96,255.29,85.9,255.14,84.92z"/>
		</g>
	</g>
</g>
</svg>
